<?xml version="1.0" encoding="UTF-8" standalone="no"?>
<svg
   width="5760"
   height="3456"
   version="1.1"
   viewBox="0 0 5399.9895 3239.983"
   id="svg37"
   sodipodi:docname="dont tread on me penguin.svg"
   inkscape:version="1.3.2 (091e20e, 2023-11-25, custom)"
   xmlns:inkscape="http://www.inkscape.org/namespaces/inkscape"
   xmlns:sodipodi="http://sodipodi.sourceforge.net/DTD/sodipodi-0.dtd"
   xmlns="http://www.w3.org/2000/svg"
   xmlns:svg="http://www.w3.org/2000/svg">
  <sodipodi:namedview
     id="namedview37"
     pagecolor="#ffffff"
     bordercolor="#000000"
     borderopacity="0.25"
     inkscape:showpageshadow="2"
     inkscape:pageopacity="0.0"
     inkscape:pagecheckerboard="0"
     inkscape:deskcolor="#d1d1d1"
     inkscape:document-units="mm"
     inkscape:zoom="0.064659442"
     inkscape:cx="340.2442"
     inkscape:cy="595.42735"
     inkscape:window-width="1920"
     inkscape:window-height="1017"
     inkscape:window-x="1672"
     inkscape:window-y="-8"
     inkscape:window-maximized="1"
     inkscape:current-layer="svg37" />
  <defs
     id="defs6">
    <linearGradient
       id="d"
       x1="341.42999"
       x2="344.45999"
       y1="278.59"
       y2="288.69"
       gradientUnits="userSpaceOnUse">
      <stop
         stop-color="#b6b488"
         offset="0"
         id="stop1" />
      <stop
         stop-color="#fff"
         offset="1"
         id="stop2" />
    </linearGradient>
    <linearGradient
       id="e"
       x1="388.57001"
       x2="385.70999"
       y1="282.35999"
       y2="310.92999"
       gradientUnits="userSpaceOnUse">
      <stop
         stop-color="#a46800"
         offset="0"
         id="stop3" />
      <stop
         stop-color="#f1e93f"
         offset="1"
         id="stop4" />
    </linearGradient>
    <linearGradient
       id="f"
       x1="345.85999"
       x2="331.85999"
       y1="550.69"
       y2="641.59998"
       gradientUnits="userSpaceOnUse">
      <stop
         stop-color="#f1f3e6"
         offset="0"
         id="stop5" />
      <stop
         stop-color="#bba898"
         offset="1"
         id="stop6" />
    </linearGradient>
  </defs>
  <rect
     style="fill:#ffd814;fill-opacity:1;stroke:none;stroke-width:124.015"
     id="rect37"
     width="5408.4355"
     height="3252.8789"
     x="-0.32038563"
     y="-0.32573575" />
  <g
     transform="matrix(-4.0451806,0,0,4.0451806,4003.6956,-383.8702)"
     id="g37">
    <path
       d="m 470.36,177.36 c -13.024,-11.92 -43.197,13.837 -56.071,19.286 -17.441,7.3814 -37.959,3.1381 -50.714,10 -7.5608,4.0676 -16.964,7.0903 -21.429,15.714 -14.182,27.396 -13.214,47.021 -11.071,59.821 -3.4351,3.8942 -9.9593,9.7808 -12.5,12.321 -3.4549,3.4549 -6.9711,8.0917 -11.804,13.954 -2.9362,3.5618 -13.708,16.514 -18.986,23.181 -5.5423,7.0007 -14.004,20.516 -19.924,26.436 -11.32,9.6327 -18.093,14.556 -29.755,24.329 -12.414,10.403 -27.84,21.404 -38.564,30.801 -12.113,10.613 -15.753,17.035 -24.538,26.299 -4.4849,5.7476 -9.6682,12.704 -12.601,17.36 -4.7681,7.5696 -13.25,22.063 -18.113,31.212 -1.8176,3.4192 -4.2262,6.9048 -6.4286,13.75 -4.7724,14.833 -9.6094,42.369 5.3571,57.679 3.988,4.0794 13.493,-7.9353 14.464,-8.9286 7.7111,-7.8896 13.161,-22.625 20.714,-32.857 8.025,-11.312 13.24,-18.814 18.75,-24.643 l 17.143,-17.143 c 16.91,-15.306 26.522,-30.016 43.393,-36.25 3.6016,-1.8008 9.4643,-3.4442 12.321,-7.3214 -5.2371,29.98 -30.463,65.875 -20.893,138.21 2.2438,16.96 8.6725,41.56 16.964,53.214 6.8879,9.6813 7.2897,28.182 11.071,36.429 6.949,15.153 -26.379,23.621 -18.571,31.429 1.9272,1.9272 65.727,-1.4417 66.429,-2.1429 7.1935,-7.1935 -10.354,-22.503 -7.1429,-25.714 4.741,-4.741 14.688,11.831 15.714,12.857 8.0759,8.0759 -5.7294,12.495 0.71428,14.643 2.8849,0.96163 48.86,-1.3601 51.071,-3.5714 3.8208,-3.8208 9.8338,1.2376 13.214,-2.1429 3.5384,-3.5384 1.4286,-20.855 1.4286,-24.643 0,-6.2181 2.5538,-9.7572 5.3571,-13.214 0.83485,-1.0296 0.68334,-4.2664 0.76366,-7.6277 0.0816,-3.4133 0.38249,-6.9549 -0.40651,-8.4437 4.5542,-17.811 -12.484,-58.471 1.7857,-76.786 9.0095,-9.0095 20.89,-74.812 26.071,-90.357 17.768,24.354 27.053,50.553 39.643,78.393 13.035,26.123 9.364,67.464 25.179,84.464 1.5152,1.5152 7.6786,4.4643 13.929,-4.8214 9.7844,-14.537 16.198,-18.759 16.25,-42.143 2.008,-72.369 -29.369,-123.18 -56.429,-173.75 -15.395,-26.525 -14.249,-32.16 -20.357,-58.214 -1.9482,-8.3098 -16.276,-37.941 -22.143,-43.929 -16.922,-17.27 -20.357,-17.462 -20.357,-38.571 0.0597,-20.874 4.0183,-35.476 14.643,-49.643 12.839,-17.12 42.166,-31.553 46.429,-38.929 z"
       fill="none"
       stroke="#000000"
       stroke-width="1px"
       id="path6" />
    <path
       d="m 433.93,196.83 c -16.855,1.811 -27.692,10.985 -40.714,22.5 -0.51396,0.45447 -3.3186,5.2528 -1.7857,6.7857 1.3515,1.3515 10.213,1.8804 11.786,0.71429 8.2903,-6.1474 40.496,-31.051 30.714,-30 z"
       fill="none"
       stroke="#000000"
       stroke-width="1px"
       id="path7" />
    <path
       d="m 342.86,220.58 c 0.42498,0.67343 -0.20879,2.6483 0.35715,3.2143 6.5049,6.5049 -5.6619,35.41 -3.5714,37.5 13.722,9.1489 51.729,17.285 62.5,10.357 1.4926,-1.4927 6.193,-2.4215 7.5,-2.8572"
       fill="none"
       stroke="#000000"
       stroke-width="1px"
       id="path8" />
    <path
       d="m 413.21,237.01 c -4.1564,3.7526 -6.5607,21.793 -7.8572,25.357 -8.6965,23.911 9.6139,28.927 18.75,39.286 0,0 3.3576,1.3456 5.625,2.8571"
       fill="none"
       stroke="#000000"
       stroke-width="1px"
       id="path9" />
    <path
       d="m 373.57,272.36 c 2.7006,4.8601 0.66775,6.4751 -2.1429,9.2857 -5.8506,5.8506 -14.677,8.2143 -25.714,8.2143 -2.619,0 -14.762,-1.6667 -16.429,0 -3.0928,3.0928 -8.6489,4.7877 -12.5,6.0714"
       fill="none"
       stroke="#000000"
       stroke-width="1px"
       id="path10" />
    <path
       d="m 350,289.51 c -2.5227,3.3554 -5.0858,3.2429 -9.2857,4.6429 -21.018,7.0061 -24.083,12.352 -29.643,22.5 -8.719,15.914 -15.654,30.926 -22.347,49.272 -2.3272,4.6776 -2.4168,9.3848 -6.5811,14.835 -4.4293,1.9629 -10.531,5.0202 -14.739,6.7279 -28.716,11.653 -52.429,18.666 -73.118,38.808 -18.607,19.044 -33.619,38.071 -44.286,58.214 -1.3419,3.7049 -1.8222,6.6048 -1.7857,10.714 0,20.328 20.337,8.1941 24.286,12.143 4.6504,4.6504 6.6394,5.6928 11.429,2.5"
       fill="none"
       stroke="#000000"
       stroke-width="1px"
       id="path11" />
    <path
       d="m 342.86,293.79 c -2.8652,16.459 3.1122,20.85 21.786,26.429 23.554,4.941 49.598,5.6877 59.732,-18.393"
       fill="none"
       stroke="#000000"
       stroke-width="1px"
       id="path12" />
    <path
       d="m 340.42,261.41 c 0.77842,6.5985 -9.2164,7.7547 -10.668,7.7547"
       fill="none"
       stroke="#000000"
       stroke-width="1px"
       id="path13" />
    <path
       d="m 282.21,380.11 c -4.5321,15.097 -6.7629,35.214 -12.501,52.78"
       fill="none"
       stroke="#000000"
       stroke-width="1px"
       id="path14" />
    <path
       d="m 444.67,330.79 c 0.55288,25.88 1.315,54.029 1.315,80.633 0,5.1274 1.603,13.374 0,18.183 -4.4745,13.424 -8.611,23.56 -12.753,35.987"
       fill="none"
       stroke="#000000"
       stroke-width="1px"
       id="path15" />
    <path
       d="m 446.49,420.01 c 45.916,31.27 88.425,111.83 73.741,157.58 -4.6964,3.8035 -13.553,0.58924 -14.142,0 -3.3021,-3.3021 -4.1047,-6.598 -9.0914,-9.0914 -3.26,-1.63 -14.614,1.0102 -16.162,1.0102"
       fill="none"
       stroke="#000000"
       stroke-width="1px"
       id="path16" />
    <path
       d="m 400.53,660.42 c -2.4435,-2.3014 -27.93,-16.011 -34.85,-9.0914 -6.9871,6.9871 10.316,9.0914 -13.637,9.0914 -7.4939,0 -14.94,2.0203 -19.698,2.0203 -0.43989,0 -10.165,3.4093 -6.6923,3.4093"
       fill="none"
       stroke="#000000"
       stroke-width="1px"
       id="path17" />
    <path
       d="m 317.69,663.96 c 1.7263,-11.454 -10.664,-2.5832 -15.152,-7.0711 -0.43916,-0.43915 -4.823,-6.2887 -7.5762,-3.5355 -1.5002,1.5002 -0.54505,5.5558 -3.5355,5.5558 -3.0191,0 -16.637,2.0203 -12.627,2.0203"
       fill="none"
       stroke="#000000"
       stroke-width="1px"
       id="path18" />
    <path
       d="m 363.91,659.16 c 2.2398,1.7219 2.5254,3.396 2.5254,6.0609 0,0.36068 1.0177,3.92 -0.23897,5.5291 -1.0462,1.3397 -20.118,4.9094 -20.118,4.9094"
       fill="none"
       stroke="#000000"
       stroke-width="1px"
       id="path19" />
    <path
       d="m 376.41,272.3 c -10.655,-1.6762 -30.835,-7.9933 -34.575,-10.823 -1.6426,-1.243 -1.5976,-1.9074 0.76705,-11.327 3.3484,-13.339 4.0572,-20.42 2.5124,-25.101 -1.1994,-3.6343 -1.1203,-3.9094 2.0718,-7.2028 3.3543,-3.4608 15.646,-10.352 22.152,-12.42 1.9445,-0.61793 9.9862,-1.8021 17.87,-2.6314 23.153,-2.4355 22.935,-2.3631 43.561,-14.493 14.261,-8.3867 25.557,-13.295 30.492,-13.247 1.389,0.0133 3.8338,0.58301 5.433,1.2659 l 2.9077,1.2417 -4.4229,3.5671 c -2.4326,1.9619 -8.2867,6.2649 -13.009,9.5622 -4.7225,3.2973 -10.966,7.9314 -13.875,10.298 -2.909,2.3666 -5.5391,4.3028 -5.8448,4.3028 -0.3057,0 0.57694,-1.6669 1.9614,-3.7043 2.9013,-4.2697 2.6136,-5.3871 -1.3874,-5.3871 -9.1258,0 -25.994,8.902 -36.919,19.483 -4.357,4.22 -5.5546,6.0484 -5.5546,8.4796 0,2.6634 0.44422,3.1884 3.1567,3.7309 8.0819,1.6164 12.009,-0.48329 29.335,-15.685 7.8392,-6.8781 9.717,-7.6419 4.4473,-1.8089 -4.6458,5.1424 -10.302,13.935 -12.881,20.024 -1.0874,2.5672 -2.6799,6.0515 -3.5388,7.7429 -0.8589,1.6914 -3.0356,9.9905 -5.0553,18.006 -3.1972,12.688 -3.8742,14.6 -3.8742,14.6 -1.2316,2.3541 -19.585,2.4938 -25.731,1.5269 z"
       fill="#1d142f"
       id="path20" />
    <path
       transform="matrix(0.8779,-0.47885,0.47885,0.8779,0,0)"
       d="m 219.91,366.31 a 8.2143,5.7143 0 0 1 1.2276,8.0358 8.2143,5.7143 0 0 1 -11.551,0.85427 8.2143,5.7143 0 0 1 -1.2285,-8.0357 8.2143,5.7143 0 0 1 11.551,-0.85492 l -5.1612,4.4455 z"
       id="path21" />
    <path
       d="m 395.98,226.76 c -1.523,-0.16579 -3.2892,-0.55961 -3.773,-0.84126 -0.67397,-0.39241 -0.78864,-0.80597 -0.54729,-1.9738 0.18935,-0.9162 1.2976,-3.4311 1.7603,-3.9945 0.53409,-0.65036 8.0545,-7.0655 10.894,-9.2926 8.15,-6.3931 14.778,-11.745 22.476,-11.956 8.0869,-0.22161 42.538,-21.833 43.244,-21.656 0.41126,0.10322 -34.763,20.657 -35.157,21.434 -1.812,3.5759 -13.274,13.666 -29.91,26.33 -1.3788,1.0496 -2.3325,1.6837 -2.7148,1.8051 -0.73501,0.23338 -4.6326,0.32364 -6.2714,0.14524 z"
       fill="#b37f1a"
       id="path22" />
    <path
       d="m 330.48,265.41 c 0.29789,-12.518 3.8238,-25.673 10.664,-39.787 1.2054,-2.4871 1.2107,-2.4953 1.3533,-2.0834 0.0788,0.22742 0.34142,0.67235 0.58373,0.98874 1.9502,2.5465 1.9819,7.72 0.10208,16.66 -0.21173,1.007 -1.1443,4.8424 -2.0723,8.5232 -1.9223,7.6239 -2.209,8.9874 -2.209,10.506 v 1.0863 l 0.51751,0.47777 c 0.49292,0.45505 0.51353,0.50364 0.43377,1.0223 -0.24527,1.5948 -1.6041,3.1892 -3.5164,4.1259 -1.567,0.76761 -3.0318,1.1973 -5.4404,1.5959 l -0.49244,0.0815 0.0761,-3.1976 z"
       fill="#e2df24"
       id="path23" />
    <path
       d="m 326.89,287.82 c 4.8246,-4.751 4.8726,-4.8624 4.8726,-11.319 v -6.5208 l 3.3722,-0.97452 c 1.8547,-0.53599 4.0576,-2.0206 4.8954,-3.2992 1.5228,-2.3241 1.524,-2.3242 5.2141,-0.4499 4.5613,2.3168 18.371,6.6851 24.146,7.638 3.5522,0.58606 4.2932,1.0962 4.2932,2.9559 0,2.9652 -4.3549,7.0196 -10.607,9.8746 -4.3466,1.985 -7.0883,2.3585 -19.665,2.6789 -12.475,0.31782 -14.972,0.6535 -17.056,2.2932 -4.6449,3.6537 -4.3199,1.9025 0.53395,-2.8773 z"
       fill="url(#d)"
       id="path24"
       style="fill:url(#d)" />
    <path
       d="m 404.08,269.48 c 0.008,-0.60322 0.80608,-3.6809 1.5121,-5.8322 0.41023,-1.2501 1.3068,-4.8866 1.9924,-8.0812 1.2577,-5.8603 1.9942,-8.9015 2.6606,-10.985 0.5088,-1.5912 0.47474,-0.85192 -0.11635,2.5254 -0.72021,4.115 -1.2075,9.6224 -1.4086,15.919 l -0.1734,5.4299 -2.2352,0.65048 c -1.3868,0.40358 -2.2338,0.54558 -2.2315,0.37411 z"
       id="path25" />
    <path
       d="m 425.21,301.49 c -0.34348,-0.14894 -1.3881,-1.0151 -2.3214,-1.9247 -1.6303,-1.589 -2.9641,-2.7266 -8.2028,-6.9962 -7.2668,-5.9225 -10.283,-10.6 -10.926,-16.942 -0.11277,-1.1124 -0.14723,-2.5489 -0.0769,-3.2057 0.1241,-1.1589 0.14464,-1.1974 0.78248,-1.466 0.36027,-0.15172 1.3381,-0.47358 2.1729,-0.71523 0.83482,-0.24166 1.646,-0.47893 1.8027,-0.52726 0.24784,-0.0765 0.30051,0.24316 0.40538,2.46 0.37845,8 2.0221,12.948 5.9035,17.771 1.4957,1.8585 5.7806,6.4113 8.992,9.554 1.2796,1.2522 2.274,2.2736 2.2097,2.2698 -0.0643,-0.004 -0.39784,-0.12885 -0.74131,-0.2778 z"
       fill="#cccccc"
       id="path26" />
    <path
       d="m 377.45,321.66 c -10.263,-1.2557 -18.001,-3.3247 -24.855,-6.6457 -7.4574,-3.6133 -10.217,-8.2488 -9.649,-16.211 0.33141,-4.6495 0.3236,-4.6339 2.7667,-5.5247 1.1697,-0.4265 2.6418,-1.2224 3.2714,-1.7686 0.97538,-0.84633 1.7359,-1.0775 5.1442,-1.5637 7.2314,-1.0315 12.957,-3.4614 17.264,-7.3265 3.5579,-3.1927 4.6121,-5.5205 3.7418,-8.2626 -0.23272,-0.73324 -0.16484,-0.78637 0.76222,-0.59659 5.4301,1.1116 16.886,1.3655 21.067,0.46691 1.4023,-0.30136 3.1882,-0.85644 3.9686,-1.2335 l 1.419,-0.68556 0.19915,3.0738 c 0.33639,5.1923 2.5119,9.7386 6.6849,13.97 1.0804,1.0954 4.2947,3.9302 7.143,6.2995 2.8482,2.3693 5.6331,4.7928 6.1887,5.3857 l 1.0101,1.0779 -0.78924,1.5584 c -5.2587,10.384 -14.201,16.419 -26.882,18.143 -3.6989,0.50278 -13.766,0.41739 -18.456,-0.15656 z"
       fill="url(#e)"
       id="path27"
       style="fill:url(#e)" />
    <path
       d="m 194.74,421.67 0.002,-3.2671 2.9649,-2.6757 c 5.32,-4.801 9.7956,-8.4502 21.653,-17.654 9.7495,-7.5681 14.272,-11.156 18.94,-15.027 2.3612,-1.9578 8.782,-7.1804 14.268,-11.606 12.847,-10.363 15.762,-12.848 17.773,-15.154 2.219,-2.5443 5.1105,-6.414 11.386,-15.238 5.2598,-7.3957 8.6311,-11.719 17.662,-22.65 2.6394,-3.1946 7.3043,-8.8726 10.367,-12.618 7.6736,-9.3847 7.7765,-9.4851 10.745,-10.488 3.6785,-1.2429 6.5122,-2.7426 9.129,-4.8314 0.96739,-0.77219 3.9739,-0.87651 10.831,-0.37583 3.1198,0.22779 6.1269,0.44106 6.6825,0.47393 l 1.0102,0.0598 -0.88389,0.57403 c -0.48613,0.31571 -2.0203,0.91686 -3.4093,1.3359 -7.3905,2.2296 -15.362,5.4765 -19.407,7.9049 -6.3775,3.8287 -8.9453,6.8252 -14.421,16.828 -8.8716,16.206 -17.317,35.244 -23.986,54.07 -1.5512,4.379 -2.9047,7.2125 -4.0207,8.4166 -0.51166,0.55208 -4.9168,2.7275 -11.907,5.88 -1.389,0.62641 -8.5484,3.5177 -15.91,6.4251 -16.407,6.4798 -21.462,8.6122 -28.289,11.933 -12.319,5.9911 -21.813,12.316 -30.489,20.311 l -0.69448,0.64 0.002,-3.2671 z"
       fill="#2a2a2e"
       id="path28" />
    <path
       transform="translate(129.09,170.21)"
       d="m 65.49,248.29 -2.0684,2.1426 c -2.6132,2.7086 -5.3724,5.7969 -8.541,9.5547 -1.3664,1.6205 -3.6522,4.2561 -5.0801,5.8574 -3.7186,4.1703 -3.9395,4.4421 -7.9375,9.7676 -5.8507,7.7934 -7.7218,10.609 -13.58,20.445 -4.6483,7.8048 -12.084,20.968 -15.414,27.283 -2.0175,3.8267 -3.8145,8.7913 -5.2793,14.592 -3.6338,14.389 -3.9163,27.369 -0.81641,37.455 l 0.53516,1.7422 h 0.15039 c 0.49626,1.4504 1.8752,4.7128 2.6758,6.0566 1.5544,2.6093 4.0516,5.6837 5.0039,6.1582 1.8344,0.91412 5.3633,-1.1112 9.5723,-5.4961 1.044,-1.0877 5.7285,-6.6738 5.7285,-6.6738 l -0.26953,-0.0449 h 0.48828 l 1.4199,-2.0098 c 1.9201,-2.7156 3.98,-6.1869 8.0645,-13.598 4.7693,-8.6532 5.7477,-10.237 10.146,-16.416 1.3165,-1.8492 2.3567,-3.3992 2.3125,-3.4434 -0.04422,-0.0442 -0.31199,0.0122 -0.5957,0.125 -0.28371,0.11275 -1.0781,0.2117 -1.7656,0.2207 -1.9709,0.0248 -3.5942,-0.89377 -6.4297,-3.6426 -0.58929,-0.57127 -1.2977,-1.123 -1.5742,-1.2266 -0.79764,-0.29874 -3.4584,-0.22018 -6.6914,0.19726 -3.7746,0.48735 -7.6371,0.52486 -9.4121,0.0918 -5.4948,-1.3406 -7.8262,-5.6867 -7.5371,-14.049 0.17544,-5.074 0.99731,-7.977 3.5586,-12.57 9.6643,-17.332 22.229,-33.802 39.934,-52.342 l 3.4102,-3.5703 -0.0039,-3.3047 -0.0039,-3.3027 z"
       fill="#2a2a2e"
       id="path29" />
    <path
       d="m 177.45,510.52 c -0.58928,-0.30702 -1.9988,-1.3645 -3.1322,-2.35 -2.8322,-2.4625 -3.5409,-2.6015 -9.6437,-1.891 -7.8762,0.91688 -10.905,0.35384 -13.403,-2.4917 -1.6304,-1.8569 -2.2136,-4.2655 -2.2136,-9.1409 0,-5.872 0.75614,-8.5691 3.9936,-14.244 9.3744,-16.434 21.668,-32.569 37.306,-48.962 7.9316,-8.315 12.313,-12.054 20.289,-17.315 10.142,-6.6897 18.819,-10.863 40.101,-19.287 15.983,-6.3265 18.931,-7.5506 25.081,-10.416 2.6432,-1.2316 4.8561,-2.1889 4.9177,-2.1273 0.0615,0.0615 -0.3638,2.0239 -0.94521,4.3609 -0.58141,2.337 -2.2015,9.7936 -3.6001,16.57 -4.4002,21.32 -6.2039,28.096 -7.9683,29.938 -1.4846,1.5497 -4.3175,3.0982 -10.245,5.6002 -7.27,3.0685 -11.34,5.5302 -17.051,10.314 -1.7202,1.4407 -12.874,12.325 -24.786,24.187 -21.446,21.357 -23.675,23.768 -30.04,32.505 -2.3852,3.2742 -3.0064,3.8989 -4.5281,4.5536 -2.1018,0.90417 -2.7163,0.93334 -4.1313,0.19611 z"
       fill="#cacabf"
       id="path30" />
    <path
       d="m 498.24,625.73 c -2.9959,-3.2072 -6.7943,-11.428 -8.8096,-19.067 -2.0214,-7.6618 -7.1179,-35.819 -6.5805,-36.357 0.19861,-0.19861 3.0014,-0.69818 6.2285,-1.1102 7.187,-0.9175 9.1725,-0.0937 13.597,5.6412 2.2694,2.9416 3.6125,3.992 5.8874,4.6046 3.6574,0.98483 10.191,0.50636 11.537,-0.84494 2.2365,-2.2444 3.5038,-9.9253 3.5253,-21.367 0.0216,-11.455 -0.65862,-16.897 -3.5781,-28.627 -9.1367,-36.71 -35.302,-78.67 -63.526,-101.88 -3.5357,-2.907 -7.1034,-5.8442 -7.9282,-6.5271 -1.471,-1.2178 -1.5087,-1.8762 -1.9729,-34.427 -0.26028,-18.252 -0.63981,-37.203 -0.8434,-42.114 l -0.37015,-8.9286 2.5881,6.0138 c 1.643,3.8178 3.611,10.73 5.3894,18.929 4.951,22.826 6.4398,26.491 23.233,57.2 27.189,49.721 37.657,74.01 44.917,104.22 4.6216,19.234 5.6177,28.293 5.6621,51.493 0.0512,26.779 -0.0754,27.256 -11.637,43.792 -3.381,4.8355 -7.1569,9.4159 -8.3909,10.179 -3.391,2.0958 -6.4628,1.8109 -8.9278,-0.82788 z"
       fill="#1a1a21"
       id="path31" />
    <path
       d="m 510.78,578.34 c -3.1753,-0.5576 -4.4498,-1.4449 -7.2446,-5.0439 -4.4978,-5.7919 -7.6258,-6.8027 -16.76,-5.4158 -3.3694,0.51164 -4.7665,0.55738 -4.8911,0.16014 -0.0959,-0.30585 -0.53678,-2.2607 -0.97972,-4.3442 -1.3954,-6.5635 -4.2699,-15.034 -7.6942,-22.672 -1.8196,-4.0589 -5.1238,-11.585 -7.3427,-16.724 -12.028,-27.858 -18.765,-41.132 -27.45,-54.085 l -3.8664,-5.7665 1.7712,-5.3033 c 0.97415,-2.9168 3.7516,-10.758 6.1721,-17.425 3.5866,-9.8789 4.4615,-12.858 4.7286,-16.098 l 0.32768,-3.9766 4.2776,3.219 c 5.3391,4.0178 16.947,15.219 22.729,21.933 24.34,28.263 42.307,65.165 46.819,96.162 1.9466,13.373 0.38753,33.141 -2.7462,34.818 -1.4029,0.75074 -5.2222,1.0249 -7.8498,0.56349 z"
       fill="#c7c0b6"
       id="path32" />
    <path
       d="m 319.86,660.31 c -2.1035,-2.4567 -5.9497,-4.0086 -9.9351,-4.0086 -3.5766,0 -7.0647,-0.90914 -7.7514,-2.0203 -1.9064,-3.0846 -8.5114,-2.4053 -9.822,1.0102 -0.71829,1.8718 -3.7901,3.0304 -8.0345,3.0304 -6.812,0 -6.893,-0.10869 -9.3379,-12.536 -1.3565,-6.8948 -5.6296,-18.817 -9.496,-26.495 -9.6996,-19.261 -14.785,-40.639 -16.214,-68.164 -1.4931,-28.763 1.3208,-49.487 10.953,-80.667 9.3278,-30.195 11.752,-39.082 17.644,-64.677 6.9679,-30.27 26.73,-78.396 38.792,-94.468 4.5639,-6.0811 17.892,-14.629 22.81,-14.629 1.1554,0 2.1008,2.3326 2.1008,5.1836 0,8.5538 3.4715,12.498 14.639,16.633 26.028,9.6364 49.051,7.4279 62.471,-5.9926 4.3394,-4.3394 8.679,-7.402 9.6436,-6.8059 0.96458,0.59615 4.7236,6.3114 8.3535,12.701 l 6.5997,11.617 0.86249,49.497 0.86249,49.497 -6.3944,17.172 c -3.5169,9.4446 -10.506,33.991 -15.531,54.548 -5.7471,23.51 -11.787,42.898 -16.282,52.26 -6.7635,14.088 -7.0755,15.653 -5.8418,29.294 3.4361,37.995 3.7827,61.442 1.0011,67.726 -1.5299,3.4563 -3.3695,6.2841 -4.0881,6.2841 -0.71857,0 -5.2696,-1.7983 -10.113,-3.9962 -4.8438,-2.1979 -11.65,-4.0162 -15.126,-4.0406 -6.4088,-0.045 -12.139,4.3229 -10.068,7.6742 0.62364,1.0091 -5.7153,2.4554 -14.086,3.2139 -8.3712,0.75858 -17.461,2.2312 -20.2,3.2725 -3.9712,1.5098 -5.6749,1.0814 -8.412,-2.1153 z"
       fill="url(#f)"
       id="path33"
       style="fill:url(#f)" />
    <path
       d="m 346.07,675.58 -10.536,3.2143"
       fill="none"
       stroke="#000000"
       stroke-width="1px"
       id="path34" />
    <path
       d="m 260.18,691.23 c -2.6057,-0.48428 -2.6708,-2.4404 -0.17316,-5.205 1.0159,-1.1245 4.1413,-3.8156 6.9452,-5.9802 8.876,-6.852 12.371,-11.752 11.81,-16.556 -0.26044,-2.2308 0.18005,-2.4262 7.2515,-3.2172 7.7257,-0.86417 7.3061,-0.69273 8.3035,-3.3925 0.4877,-1.32 1.107,-2.6893 1.3761,-3.0428 0.75673,-0.99382 2.3527,-0.23784 5.2584,2.4908 l 2.6388,2.4779 5.9255,-0.0691 c 5.5986,-0.0653 5.9769,-0.006 6.8569,1.0811 0.74484,0.91982 0.87029,1.6638 0.62637,3.7145 -0.2849,2.3953 -0.14872,2.8306 2.0664,6.6049 6.5853,11.22 7.6923,14.352 6.2177,17.588 -0.51127,1.1221 -0.93058,1.2472 -5.177,1.5441 -24.528,1.7152 -55.751,2.7369 -59.927,1.9609 z"
       fill="#13121b"
       id="path35" />
    <path
       d="m 331.43,672.42 c -2.2598,-3.0432 -4.3284,-5.6689 -4.597,-5.8349 -2.0678,-1.278 3.1674,-2.9486 13.149,-4.1962 9.9693,-1.246 24.527,-1.8637 25.023,-1.0617 0.51507,0.83341 1.2492,7.4372 0.9216,8.2908 -0.37225,0.97008 -3.4284,1.8645 -13.86,4.0562 -4.628,0.97241 -9.6382,2.1854 -11.134,2.6954 -5.6476,1.9262 -4.9133,2.2314 -9.503,-3.9496 z"
       fill="#13121b"
       id="path36" />
    <path
       d="m 333.61,689.85 c -0.15556,-0.40538 0.4766,-1.7952 1.4048,-3.0884 1.4116,-1.9668 1.6835,-2.7823 1.6626,-4.986 l -0.0251,-2.6346 5.8335,-1.6213 c 3.2084,-0.89171 8.1063,-2.0719 10.884,-2.6227 7.4578,-1.4786 12.755,-2.9967 13.472,-3.8611 0.8343,-1.0053 0.65944,-6.7509 -0.2962,-9.7325 -1.8528,-5.7806 -1.9889,-6.5441 -1.398,-7.8409 2.4062,-5.2811 12.611,-4.0261 27.618,3.3965 2.7779,1.374 5.3674,2.8039 5.7544,3.1775 0.49507,0.47791 0.83173,2.8963 1.1357,8.1584 0.50254,8.6991 -0.0123,14.332 -1.4884,16.285 -0.96249,1.2731 -1.1237,1.3046 -5.8522,1.1447 -4.1113,-0.13908 -5.1153,-0.0126 -6.4992,0.819 -0.90017,0.54092 -2.2141,1.1187 -2.9199,1.284 -4.8606,1.1382 -29.211,2.8412 -40.78,2.852 -6.7468,0.006 -8.2741,-0.12467 -8.5062,-0.72938 z"
       fill="#13121b"
       id="path37" />
  </g>
  <text
     xml:space="preserve"
     style="font-size:437.499px;line-height:1;font-family:Tangerine;-inkscape-font-specification:Tangerine;text-align:center;letter-spacing:0px;text-anchor:middle;fill:#000000;fill-opacity:1;stroke:none;stroke-width:124.015"
     x="2667.8186"
     y="2841.8015"
     id="text37"><tspan
       sodipodi:role="line"
       id="tspan37"
       style="font-style:normal;font-variant:normal;font-weight:normal;font-stretch:normal;font-size:437.499px;font-family:'Franklin Gothic Medium Cond';-inkscape-font-specification:'Franklin Gothic Medium Cond';stroke-width:124.016"
       x="2667.8186"
       y="2841.8015">DON'T TREAD ON ME</tspan></text>
</svg>
