<?xml version="1.0" encoding="UTF-8" standalone="no"?>
<!-- Created with Inkscape (http://www.inkscape.org/) -->

<svg
   width="20520mm"
   height="10800mm"
   viewBox="0 0 68.4 36"
   version="1.1"
   id="svg1"
   inkscape:version="1.3.2 (091e20e, 2023-11-25, custom)"
   sodipodi:docname="protest-flag-preamble-print.svg"
   xmlns:inkscape="http://www.inkscape.org/namespaces/inkscape"
   xmlns:sodipodi="http://sodipodi.sourceforge.net/DTD/sodipodi-0.dtd"
   xmlns:xlink="http://www.w3.org/1999/xlink"
   xmlns="http://www.w3.org/2000/svg"
   xmlns:svg="http://www.w3.org/2000/svg">
  <sodipodi:namedview
     id="namedview1"
     pagecolor="#ffffff"
     bordercolor="#000000"
     borderopacity="0.25"
     inkscape:showpageshadow="2"
     inkscape:pageopacity="0.0"
     inkscape:pagecheckerboard="0"
     inkscape:deskcolor="#d1d1d1"
     inkscape:document-units="mm"
     showgrid="false"
     inkscape:zoom="0.01"
     inkscape:cx="42100"
     inkscape:cy="12150"
     inkscape:window-width="1920"
     inkscape:window-height="1017"
     inkscape:window-x="1672"
     inkscape:window-y="-8"
     inkscape:window-maximized="1"
     inkscape:current-layer="svg1" />
  <defs
     id="defs1" />
  <rect
     width="68.399986"
     height="36.008907"
     fill="#b22234"
     id="rect1"
     x="2.0030177e-05"
     y="-5.3537315e-07"
     style="display:inline;stroke-width:0.00923193"
     inkscape:label="Red Rectangle" />
  <path
     d="M -4.4158181e-4,4.2568659 H 68.399988 m 0,5.5170627 H -4.4158181e-4 m 0,5.5170624 H 68.399988 m 0,5.517059 H -4.4158181e-4 m 0,5.517063 H 68.399988 m 0,5.517062 H -4.4158181e-4"
     stroke="#ffffff"
     stroke-width="2.76396"
     id="path1"
     style="display:none;fill:#000000;fill-opacity:1"
     inkscape:label="White Stripes" />
  <g
     inkscape:groupmode="layer"
     id="layer1"
     inkscape:label="Black Stripes"
     style="display:inline;fill:#000000"
     transform="matrix(0.00923124,0,0,0.00918202,1.3783692e-5,0.11539511)">
    <rect
       style="display:inline;fill:#000000;fill-opacity:1;fill-rule:nonzero;stroke-width:4.70307"
       id="rect10"
       width="7409.9932"
       height="300.11166"
       x="0.010501742"
       y="299.95163"
       inkscape:label="stripe1" />
    <rect
       style="display:inline;fill:#000000;fill-opacity:1;fill-rule:nonzero;stroke-width:4.70307"
       id="rect12"
       width="7409.9937"
       height="300.11166"
       x="0.080814064"
       y="899.89557"
       inkscape:label="stripe2" />
    <rect
       style="display:inline;fill:#000000;fill-opacity:1;fill-rule:nonzero;stroke-width:4.70399"
       id="rect13"
       width="7410.0015"
       height="300.22885"
       x="0.010501508"
       y="1499.7549"
       inkscape:label="stripe3" />
    <rect
       style="display:inline;fill:#000000;fill-opacity:1;fill-rule:nonzero;stroke-width:4.70342"
       id="rect14"
       width="7409.9312"
       height="300.15854"
       x="0.051452745"
       y="2099.9985"
       inkscape:label="stripe4" />
    <rect
       style="display:inline;fill:#000000;fill-opacity:1;fill-rule:nonzero;stroke-width:4.70344"
       id="rect15"
       width="7410.0015"
       height="300.15854"
       x="0.0040837526"
       y="2700.0151"
       inkscape:label="stripe5" />
    <rect
       style="display:inline;fill:#000000;fill-opacity:1;fill-rule:nonzero;stroke-width:4.70344"
       id="rect16"
       width="7410.0015"
       height="300.15854"
       x="-0.018921018"
       y="3300.0037"
       inkscape:label="stripe5" />
  </g>
  <rect
     width="27.378342"
     height="19.397612"
     fill="#3c3b6e"
     id="rect2-7"
     x="1.8392991e-05"
     y="3.243201e-06"
     style="stroke-width:0.009237"
     inkscape:label="Union" />
  <g
     fill="#ffffff"
     id="g10"
     transform="matrix(0.00935417,0,0,0.00935417,0.07585975,-0.00847028)"
     inkscape:label="Stars">
    <g
       id="s18">
      <g
         id="s9">
        <g
           id="s5">
          <g
             id="s4">
            <path
               id="s"
               d="M 247,90 317.53423,307.08204 132.87322,172.91796 H 361.12678 L 176.46577,307.08204 Z" />
            <use
               xlink:href="#s"
               y="420"
               id="use2" />
            <use
               xlink:href="#s"
               y="840"
               id="use3" />
            <use
               xlink:href="#s"
               y="1260"
               id="use4" />
          </g>
          <use
             xlink:href="#s"
             y="1680"
             id="use5" />
        </g>
        <use
           xlink:href="#s4"
           x="247"
           y="210"
           id="use6" />
      </g>
      <use
         xlink:href="#s9"
         x="494"
         id="use7" />
    </g>
    <use
       xlink:href="#s18"
       x="988"
       id="use8" />
    <use
       xlink:href="#s9"
       x="1976"
       id="use9" />
    <use
       xlink:href="#s5"
       x="2470"
       id="use10" />
  </g>
  <g
     inkscape:groupmode="layer"
     id="layer2"
     inkscape:label="Guides (Hide)"
     style="display:none">
    <rect
       style="fill:#ffff00;stroke-width:0.000281497"
       id="rect2"
       width="4.2858281"
       height="2.7807968"
       x="4.0950075e-05"
       y="33.163357" />
    <rect
       style="fill:#00ffff;stroke-width:0.00037063"
       id="rect3"
       width="3.5300522"
       height="0.064746216"
       x="4.1865809e-05"
       y="35.944153" />
    <rect
       style="fill:#ff6600;fill-opacity:1;stroke-width:0.000443048"
       id="rect4"
       width="5.9580989"
       height="0.82082456"
       x="20.192841"
       y="2.7656845e-06" />
  </g>
  <path
     style="font-size:7.05556px;line-height:1;font-family:Tangerine;-inkscape-font-specification:Tangerine;text-align:center;letter-spacing:0px;text-anchor:middle;fill:#f9f9f9;stroke-width:0.00072"
     d="m 10.167072,23.308024 q 0.02822,0.02117 0.0071,0.0635 -0.01411,0.03528 -0.05645,0.07056 -0.04233,0.03528 -0.09878,0.0635 -0.056444,0.02822 -0.1058331,0.02822 -0.1693335,-0.01411 -0.3457225,-0.03528 -0.1693334,-0.02822 -0.3386668,-0.05644 -0.1411112,0.04233 -0.2540002,0.127 -0.1058334,0.07761 -0.1975557,0.218722 -0.091722,0.134056 -0.176389,0.345723 -0.084667,0.211667 -0.1693334,0.522111 -0.049389,0.162278 -0.091722,0.3175 -0.042333,0.155223 -0.098778,0.303389 0.176389,-0.0071 0.352778,-0.0071 0.1834446,0 0.3739447,0 0.035278,0.01411 0.021167,0.03528 -0.00706,0.02117 -0.0635,0.03528 -0.1834446,0 -0.3668892,0.0071 -0.176389,0 -0.3457224,0.0071 -0.416278,1.164167 -1.0512785,1.707445 -0.6279448,0.543278 -1.5028343,0.543278 -0.5080003,0 -0.7620005,-0.254 -0.2540001,-0.261056 -0.2540001,-0.684389 0,-0.204611 0.1058334,-0.409223 0.1128889,-0.204611 0.3175002,-0.345722 0.035278,0 0.042333,0.02822 0.014111,0.02822 0,0.04939 -0.1270001,0.09878 -0.1905002,0.218722 -0.056445,0.112889 -0.056445,0.310445 0,0.183445 0.0635,0.338667 0.0635,0.155222 0.1975557,0.275167 0.1340556,0.112889 0.3457224,0.176389 0.2116668,0.0635 0.5080003,0.0635 0.352778,0 0.6350005,-0.09878 0.2822224,-0.105833 0.5150558,-0.338667 0.2398891,-0.239889 0.4374448,-0.620889 0.2046112,-0.388056 0.3880558,-0.945445 -0.352778,0.01411 -0.6914449,0.04233 -0.3316113,0.02822 -0.6702782,0.07761 -0.021167,-0.0071 0.00706,-0.02822 0.028222,-0.02822 0.077611,-0.04939 0.056444,-0.02822 0.112889,-0.04939 0.0635,-0.02822 0.098778,-0.03528 0.289278,-0.02117 0.5573892,-0.02822 0.2681113,-0.01411 0.5362226,-0.02117 0.035278,-0.112888 0.070556,-0.232833 0.035278,-0.119945 0.070556,-0.246945 0.084667,-0.303389 0.1693335,-0.529167 0.091722,-0.232833 0.2046112,-0.395111 0.112889,-0.162278 0.2469446,-0.268111 0.1411112,-0.112889 0.3245558,-0.183445 -0.3810003,-0.05644 -0.7337783,-0.09878 -0.352778,-0.04939 -0.6702782,-0.04939 -0.529167,0 -0.8890006,0.225778 -0.3598335,0.225778 -0.5221114,0.712612 -0.021167,0.01411 -0.042333,0.0071 -0.021167,-0.01411 -0.021167,-0.04939 0.1552224,-0.500945 0.6067782,-0.804334 0.4586114,-0.303389 1.1288896,-0.303389 0.2610558,0 0.5221115,0.02822 0.2681113,0.02822 0.5432781,0.07055 0.2751669,0.03528 0.5644448,0.07761 0.2963335,0.04233 0.6138337,0.07055 z m -0.6067821,2.688169 q 0,0.105833 -0.021167,0.246944 -0.021167,0.141111 -0.056445,0.282223 0.1411112,-0.338667 0.3104447,-0.529167 0.1693334,-0.197556 0.3668896,-0.197556 0.07761,0 0.141111,0.04233 0.0635,0.04233 0.0635,0.119945 0,0.05644 -0.04233,0.148167 -0.04233,0.08467 -0.08467,0.127 -0.04233,0.02822 -0.04233,-0.02117 0,-0.119945 -0.162278,-0.119945 -0.2469442,0 -0.4444999,0.373945 -0.1975556,0.366889 -0.3739446,1.023056 -0.014111,0.07056 -0.098778,0.09172 -0.077611,0.02117 -0.1340556,0.02117 -0.077611,0 -0.035278,-0.07761 0.0635,-0.148167 0.1199445,-0.3175 0.056444,-0.176389 0.1058334,-0.352778 0.056444,-0.176389 0.091722,-0.345723 0.035278,-0.169333 0.056444,-0.310444 0.028222,-0.211667 -0.070556,-0.211667 -0.056445,0 -0.1340557,0.0635 -0.070556,0.0635 -0.1340556,0.148167 -0.028222,0.01411 -0.049389,0 -0.021167,-0.02117 -0.00706,-0.04939 0.1058334,-0.134056 0.2328335,-0.239889 0.1340556,-0.112889 0.2469446,-0.112889 0.1552223,0 0.1552223,0.197556 z m 1.9755551,0.112889 q 0,0.09878 -0.07761,0.183444 -0.07761,0.08467 -0.211666,0.155222 -0.134056,0.0635 -0.310445,0.119945 -0.169333,0.05644 -0.359834,0.105833 -0.0071,0.07761 -0.01411,0.155223 0,0.07761 0,0.169333 0,0.176389 0.07761,0.296334 0.07761,0.119944 0.218723,0.119944 0.141111,0 0.261056,-0.07055 0.127,-0.07056 0.225777,-0.190501 0.02822,-0.01411 0.04233,0.0071 0.01411,0.02117 0,0.04939 -0.119945,0.162278 -0.303389,0.282222 -0.176389,0.112889 -0.373945,0.112889 -0.183444,0 -0.303389,-0.119944 -0.112889,-0.119945 -0.112889,-0.352778 0,-0.211667 0.07761,-0.444501 0.07761,-0.239889 0.204611,-0.437444 0.127001,-0.197556 0.289278,-0.324556 0.169334,-0.127 0.352778,-0.127 0.134056,0 0.225778,0.09878 0.09172,0.09172 0.09172,0.211667 z m -0.465667,-0.127001 q -0.162278,0 -0.289278,0.141112 -0.127,0.141111 -0.183445,0.4445 0.338667,-0.04939 0.493889,-0.141111 0.162278,-0.09878 0.162278,-0.218723 0,-0.09878 -0.04939,-0.162277 -0.04939,-0.0635 -0.134055,-0.0635 z m 1.919108,0.127001 q 0,0.09878 -0.07761,0.183444 -0.07761,0.08467 -0.211667,0.155222 -0.134056,0.0635 -0.310445,0.119945 -0.169333,0.05644 -0.359833,0.105833 -0.0071,0.07761 -0.01411,0.155223 0,0.07761 0,0.169333 0,0.176389 0.07761,0.296334 0.07761,0.119944 0.218722,0.119944 0.141111,0 0.261056,-0.07055 0.127,-0.07056 0.225778,-0.190501 0.02822,-0.01411 0.04233,0.0071 0.01411,0.02117 0,0.04939 -0.119945,0.162278 -0.303389,0.282222 -0.176389,0.112889 -0.373945,0.112889 -0.183444,0 -0.303389,-0.119944 -0.112889,-0.119945 -0.112889,-0.352778 0,-0.211667 0.07761,-0.444501 0.07761,-0.239889 0.204612,-0.437444 0.127,-0.197556 0.289278,-0.324556 0.169333,-0.127 0.352778,-0.127 0.134055,0 0.225777,0.09878 0.09172,0.09172 0.09172,0.211667 z m -0.465667,-0.127001 q -0.162278,0 -0.289278,0.141112 -0.127,0.141111 -0.183445,0.4445 0.338667,-0.04939 0.493889,-0.141111 0.162278,-0.09878 0.162278,-0.218723 0,-0.09878 -0.04939,-0.162277 -0.04939,-0.0635 -0.134055,-0.0635 z m 2.977439,-0.155222 q 0.03528,0.01411 0.02822,0.04233 -0.0071,0.02822 -0.0635,0.03528 -0.112889,0.0071 -0.254,0.01411 -0.134056,0.0071 -0.275167,0.02117 -0.141111,0.352778 -0.232833,0.677334 -0.09172,0.324556 -0.09172,0.536222 0,0.23989 0.183445,0.23989 0.183444,0 0.402167,-0.324556 0.02117,-0.01411 0.04233,0.0071 0.02117,0.01411 0.01411,0.04939 -0.0635,0.09878 -0.148166,0.1905 -0.07761,0.08467 -0.162278,0.148167 -0.08467,0.0635 -0.162278,0.105834 -0.07761,0.03528 -0.127,0.03528 -0.155223,0 -0.232834,-0.09172 -0.07056,-0.09878 -0.07056,-0.232833 0,-0.232834 0.09878,-0.585612 0.09878,-0.352778 0.246945,-0.726723 -0.09172,0.01411 -0.176389,0.02822 -0.08467,0.01411 -0.162278,0.02822 -0.03528,-0.0071 -0.02117,-0.03528 0.02117,-0.02822 0.0635,-0.05644 0.04939,-0.02822 0.112888,-0.04939 0.0635,-0.02822 0.119945,-0.02822 0.03528,-0.0071 0.05644,-0.0071 0.02822,0 0.05645,0 0.09878,-0.218723 0.197556,-0.416278 0.09878,-0.204611 0.197555,-0.373945 0.04233,-0.04233 0.09172,-0.07055 0.05644,-0.03528 0.105833,-0.04233 0.04939,-0.01411 0.07761,-0.0071 0.02822,0 0.02117,0.02117 -0.119945,0.183445 -0.239889,0.409223 -0.112889,0.225778 -0.218723,0.465667 0.127001,0 0.254001,0 0.127,-0.0071 0.268111,-0.0071 z m -0.0635,1.714501 q 0.3175,-1.213556 0.712612,-2.187223 0.395111,-0.973668 0.8255,-1.658057 0.437445,-0.684389 0.889001,-1.051278 0.451556,-0.373945 0.874889,-0.373945 0.155223,0 0.254001,0.0635 0.105833,0.05644 0.141111,0.148167 0.04233,0.09172 0.02117,0.204611 -0.01411,0.112889 -0.09878,0.218722 -0.01411,0.02117 -0.03528,0.01411 -0.02117,-0.0071 -0.02117,-0.03528 0.02822,-0.141112 -0.08467,-0.268112 -0.112889,-0.127 -0.359833,-0.127 -0.331611,0 -0.677334,0.261056 -0.345722,0.261056 -0.691445,0.804334 -0.345722,0.536222 -0.684389,1.354667 -0.331611,0.818445 -0.642056,1.940279 0.112889,-0.218722 0.261056,-0.409222 0.148166,-0.197556 0.303389,-0.338667 0.155222,-0.141111 0.310444,-0.218722 0.162278,-0.08467 0.310445,-0.08467 0.08467,0 0.127,0.04233 0.04233,0.04233 0.04233,0.09878 0,0.09172 -0.0635,0.204611 -0.148166,0.261056 -0.246944,0.536223 -0.09172,0.275167 -0.09172,0.500945 0,0.09878 0.02117,0.162278 0.02822,0.0635 0.08467,0.0635 0.07055,0 0.148167,-0.07056 0.08467,-0.07761 0.148166,-0.169333 0.02117,-0.01411 0.04233,0.0071 0.02117,0.01411 0.01411,0.04233 -0.04233,0.0635 -0.105834,0.134056 -0.0635,0.0635 -0.141111,0.127 -0.07055,0.05645 -0.148166,0.09172 -0.07761,0.03528 -0.141112,0.03528 -0.176389,0 -0.176389,-0.296333 0,-0.254 0.08467,-0.550334 0.08467,-0.303389 0.204611,-0.536222 0.04233,-0.07056 0.04233,-0.119945 0,-0.0635 -0.07761,-0.0635 -0.127,0 -0.275166,0.09878 -0.148167,0.09878 -0.303389,0.289278 -0.155223,0.1905 -0.296334,0.465667 -0.141111,0.268111 -0.254,0.606778 -0.01411,0.04939 -0.07761,0.07761 -0.05645,0.02822 -0.112889,0.02822 -0.07761,0 -0.05645,-0.0635 z m 3.330224,-1.432278 q 0,0.09878 -0.07761,0.183444 -0.07761,0.08467 -0.211667,0.155222 -0.134056,0.0635 -0.310445,0.119945 -0.169333,0.05644 -0.359833,0.105833 -0.0071,0.07761 -0.01411,0.155223 0,0.07761 0,0.169333 0,0.176389 0.07761,0.296334 0.07761,0.119944 0.218722,0.119944 0.141111,0 0.261056,-0.07055 0.127,-0.07056 0.225778,-0.190501 0.02822,-0.01411 0.04233,0.0071 0.01411,0.02117 0,0.04939 -0.119945,0.162278 -0.303389,0.282222 -0.176389,0.112889 -0.373945,0.112889 -0.183444,0 -0.303389,-0.119944 -0.112889,-0.119945 -0.112889,-0.352778 0,-0.211667 0.07761,-0.444501 0.07761,-0.239889 0.204612,-0.437444 0.127,-0.197556 0.289278,-0.324556 0.169333,-0.127 0.352778,-0.127 0.134055,0 0.225777,0.09878 0.09172,0.09172 0.09172,0.211667 z m -0.465667,-0.127001 q -0.162278,0 -0.289278,0.141112 -0.127,0.141111 -0.183445,0.4445 0.338667,-0.04939 0.493889,-0.141111 0.162278,-0.09878 0.162278,-0.218723 0,-0.09878 -0.04939,-0.162277 -0.04939,-0.0635 -0.134055,-0.0635 z m 2.984494,-0.176389 q 0.141112,0 0.225778,0.127001 0.08467,0.127 0.08467,0.324555 0,0.275167 -0.09878,0.522112 -0.09172,0.239889 -0.261055,0.430389 -0.162278,0.183445 -0.388056,0.296333 -0.225778,0.105834 -0.49389,0.105834 -0.119944,0 -0.197555,-0.04939 -0.119945,0.352778 -0.218723,0.747889 -0.09878,0.402167 -0.09878,0.74789 0,0.155222 0.162277,0.134055 0.105834,-0.02117 0.211667,-0.08467 0.02117,-0.0071 0.02117,0.02117 0.0071,0.03528 -0.0071,0.05645 -0.08467,0.04939 -0.232833,0.09878 -0.148167,0.04939 -0.282222,0.04939 -0.05645,0 -0.09172,-0.02822 -0.03528,-0.02117 -0.03528,-0.08467 0,-0.359834 0.112889,-0.832557 0.112889,-0.472722 0.296334,-0.980722 -0.01411,-0.02117 -0.02822,-0.04233 -0.0071,-0.02822 -0.01411,-0.05644 -0.0071,-0.02822 0.105833,-0.0635 0.09172,-0.254 0.197556,-0.508001 0.105833,-0.254 0.211666,-0.493889 0.134056,-0.296333 0.119945,-0.359833 -0.0071,-0.07056 -0.08467,-0.02822 -0.04939,0.02822 -0.112889,0.07761 -0.0635,0.04939 -0.119944,0.112889 -0.01411,0.01411 -0.03528,-0.0071 -0.01411,-0.02822 -0.0071,-0.04233 0.04233,-0.04939 0.112889,-0.112889 0.07056,-0.0635 0.141112,-0.119945 0.07761,-0.0635 0.148166,-0.105833 0.07761,-0.04233 0.134056,-0.04233 0.05644,0 0.07056,0.0635 0.02117,0.05645 -0.02117,0.155223 -0.04233,0.119944 -0.112889,0.282222 -0.0635,0.155222 -0.141111,0.310445 0.197555,-0.296334 0.388056,-0.458612 0.1905,-0.162278 0.338666,-0.162278 z m -0.754945,1.665113 q 0.17639,0 0.324556,-0.07761 0.155223,-0.07761 0.261056,-0.211667 0.112889,-0.141112 0.169333,-0.324556 0.0635,-0.1905 0.0635,-0.416278 0,-0.169334 -0.0635,-0.275167 -0.05644,-0.112889 -0.183444,-0.112889 -0.162278,0 -0.388056,0.289278 -0.225778,0.289278 -0.416278,0.818445 -0.01411,0.03528 -0.02822,0.07056 -0.0071,0.03528 -0.02117,0.07055 0.03528,0.07761 0.09878,0.127 0.07056,0.04233 0.183444,0.04233 z m 2.589389,-1.361723 q 0,0.09878 -0.07761,0.183444 -0.07761,0.08467 -0.211667,0.155222 -0.134055,0.0635 -0.310444,0.119945 -0.169334,0.05644 -0.359834,0.105833 -0.0071,0.07761 -0.01411,0.155223 0,0.07761 0,0.169333 0,0.176389 0.07761,0.296334 0.07761,0.119944 0.218722,0.119944 0.141112,0 0.261056,-0.07055 0.127,-0.07056 0.225778,-0.190501 0.02822,-0.01411 0.04233,0.0071 0.01411,0.02117 0,0.04939 -0.119944,0.162278 -0.303389,0.282222 -0.176389,0.112889 -0.373944,0.112889 -0.183445,0 -0.303389,-0.119944 -0.112889,-0.119945 -0.112889,-0.352778 0,-0.211667 0.07761,-0.444501 0.07761,-0.239889 0.204611,-0.437444 0.127,-0.197556 0.289278,-0.324556 0.169333,-0.127 0.352778,-0.127 0.134056,0 0.225778,0.09878 0.09172,0.09172 0.09172,0.211667 z m -0.465667,-0.127001 q -0.162278,0 -0.289278,0.141112 -0.127,0.141111 -0.183444,0.4445 0.338667,-0.04939 0.493889,-0.141111 0.162278,-0.09878 0.162278,-0.218723 0,-0.09878 -0.04939,-0.162277 -0.04939,-0.0635 -0.134056,-0.0635 z m 1.608664,-0.183444 q 0.1905,0 0.282223,0.127 0.09172,0.127 0.09172,0.331611 0,0.239889 -0.09172,0.479778 -0.09172,0.239889 -0.232834,0.437445 -0.141111,0.1905 -0.310445,0.310445 -0.162277,0.119944 -0.303389,0.119944 -0.169333,0 -0.268111,-0.134055 -0.09878,-0.134056 -0.09878,-0.381001 0,-0.197555 0.07761,-0.423333 0.07761,-0.225778 0.204612,-0.416278 0.134055,-0.197556 0.296333,-0.324556 0.169334,-0.127 0.352778,-0.127 z m -0.423333,1.587501 q 0.105833,0 0.204611,-0.07056 0.105833,-0.07761 0.183444,-0.197555 0.07761,-0.127 0.119945,-0.289278 0.04939,-0.162278 0.04939,-0.338667 0,-0.211667 -0.07056,-0.331612 -0.07056,-0.127 -0.232833,-0.127 -0.105834,0 -0.204612,0.07761 -0.09878,0.07055 -0.176389,0.197555 -0.07056,0.119945 -0.112888,0.289278 -0.04233,0.162278 -0.04233,0.345723 0,0.4445 0.282223,0.4445 z m 2.328337,-1.580446 q 0.141111,0 0.225778,0.127001 0.08467,0.127 0.08467,0.324555 0,0.275167 -0.09878,0.522112 -0.09172,0.239889 -0.261056,0.430389 -0.162278,0.183445 -0.388056,0.296333 -0.225778,0.105834 -0.493889,0.105834 -0.119945,0 -0.197556,-0.04939 -0.119944,0.352778 -0.218722,0.747889 -0.09878,0.402167 -0.09878,0.74789 0,0.155222 0.162278,0.134055 0.105833,-0.02117 0.211667,-0.08467 0.02117,-0.0071 0.02117,0.02117 0.0071,0.03528 -0.0071,0.05645 -0.08467,0.04939 -0.232834,0.09878 -0.148166,0.04939 -0.282222,0.04939 -0.05645,0 -0.09172,-0.02822 -0.03528,-0.02117 -0.03528,-0.08467 0,-0.359834 0.112889,-0.832557 0.112889,-0.472722 0.296333,-0.980722 -0.01411,-0.02117 -0.02822,-0.04233 -0.0071,-0.02822 -0.01411,-0.05644 -0.0071,-0.02822 0.105833,-0.0635 0.09172,-0.254 0.197556,-0.508001 0.105833,-0.254 0.211667,-0.493889 0.134055,-0.296333 0.119944,-0.359833 -0.0071,-0.07056 -0.08467,-0.02822 -0.04939,0.02822 -0.112889,0.07761 -0.0635,0.04939 -0.119945,0.112889 -0.01411,0.01411 -0.03528,-0.0071 -0.01411,-0.02822 -0.0071,-0.04233 0.04233,-0.04939 0.112889,-0.112889 0.07056,-0.0635 0.141111,-0.119945 0.07761,-0.0635 0.148167,-0.105833 0.07761,-0.04233 0.134055,-0.04233 0.05645,0 0.07056,0.0635 0.02117,0.05645 -0.02117,0.155223 -0.04233,0.119944 -0.112889,0.282222 -0.0635,0.155222 -0.141111,0.310445 0.197556,-0.296334 0.388056,-0.458612 0.1905,-0.162278 0.338667,-0.162278 z m -0.754945,1.665113 q 0.176389,0 0.324556,-0.07761 0.155222,-0.07761 0.261055,-0.211667 0.112889,-0.141112 0.169334,-0.324556 0.0635,-0.1905 0.0635,-0.416278 0,-0.169334 -0.0635,-0.275167 -0.05645,-0.112889 -0.183445,-0.112889 -0.162278,0 -0.388056,0.289278 -0.225777,0.289278 -0.416278,0.818445 -0.01411,0.03528 -0.02822,0.07056 -0.0071,0.03528 -0.02117,0.07055 0.03528,0.07761 0.09878,0.127 0.07056,0.04233 0.183445,0.04233 z m 4.254501,-5.108226 q 0.183444,0 0.232833,0.169334 0.05645,0.169333 -0.04233,0.359833 -0.01411,0.01411 -0.03528,0 -0.02117,-0.01411 -0.02822,-0.03528 0.01411,-0.08467 -0.0635,-0.141111 -0.07056,-0.05644 -0.225778,-0.05644 -0.303389,0 -0.599723,0.254 -0.296333,0.254 -0.5715,0.663222 -0.275167,0.402167 -0.515056,0.903112 -0.232833,0.500945 -0.409222,1.00189 -0.169334,0.493889 -0.268112,0.938389 -0.09878,0.437445 -0.09878,0.712612 0,0.211667 0.119945,0.211667 0.08467,0 0.162278,-0.07056 0.08467,-0.07056 0.1905,-0.211667 0.02117,-0.01411 0.03528,0.0071 0.02117,0.01411 0.01411,0.04233 -0.141111,0.218722 -0.310445,0.359834 -0.169333,0.134055 -0.289278,0.134055 -0.09172,0 -0.148167,-0.07055 -0.05644,-0.07761 -0.05644,-0.204612 0,-0.197555 0.07056,-0.508 0.07056,-0.3175 0.197555,-0.705556 0.127,-0.388056 0.303389,-0.811389 0.183445,-0.430389 0.395112,-0.846668 0.211667,-0.416278 0.4445,-0.797278 0.239889,-0.381 0.486834,-0.670278 0.254,-0.289278 0.508,-0.458611 0.254,-0.169334 0.500945,-0.169334 z m -0.719663,3.746503 q 0,0.09878 -0.07761,0.183444 -0.07761,0.08467 -0.211667,0.155222 -0.134055,0.0635 -0.310444,0.119945 -0.169334,0.05644 -0.359834,0.105833 -0.0071,0.07761 -0.01411,0.155223 0,0.07761 0,0.169333 0,0.176389 0.07761,0.296334 0.07761,0.119944 0.218723,0.119944 0.141111,0 0.261055,-0.07055 0.127,-0.07056 0.225778,-0.190501 0.02822,-0.01411 0.04233,0.0071 0.01411,0.02117 0,0.04939 -0.119945,0.162278 -0.303389,0.282222 -0.176389,0.112889 -0.373945,0.112889 -0.183445,0 -0.303389,-0.119944 -0.112889,-0.119945 -0.112889,-0.352778 0,-0.211667 0.07761,-0.444501 0.07761,-0.239889 0.204611,-0.437444 0.127,-0.197556 0.289278,-0.324556 0.169334,-0.127 0.352778,-0.127 0.134056,0 0.225778,0.09878 0.09172,0.09172 0.09172,0.211667 z m -0.465667,-0.127001 q -0.162277,0 -0.289278,0.141112 -0.127,0.141111 -0.183444,0.4445 0.338667,-0.04939 0.493889,-0.141111 0.162278,-0.09878 0.162278,-0.218723 0,-0.09878 -0.04939,-0.162277 -0.04939,-0.0635 -0.134056,-0.0635 z m 2.666995,-0.183444 q 0.1905,0 0.282222,0.127 0.09172,0.127 0.09172,0.331611 0,0.239889 -0.09172,0.479778 -0.09172,0.239889 -0.232833,0.437445 -0.141111,0.1905 -0.310445,0.310445 -0.162278,0.119944 -0.303389,0.119944 -0.169333,0 -0.268111,-0.134055 -0.09878,-0.134056 -0.09878,-0.381001 0,-0.197555 0.07761,-0.423333 0.07761,-0.225778 0.204611,-0.416278 0.134056,-0.197556 0.296334,-0.324556 0.169333,-0.127 0.352778,-0.127 z m -0.423334,1.587501 q 0.105834,0 0.204612,-0.07056 0.105833,-0.07761 0.183444,-0.197555 0.07761,-0.127 0.119945,-0.289278 0.04939,-0.162278 0.04939,-0.338667 0,-0.211667 -0.07056,-0.331612 -0.07056,-0.127 -0.232834,-0.127 -0.105833,0 -0.204611,0.07761 -0.09878,0.07055 -0.176389,0.197555 -0.07056,0.119945 -0.112889,0.289278 -0.04233,0.162278 -0.04233,0.345723 0,0.4445 0.282222,0.4445 z m 4.141617,-4.91067 q 0.134055,0 0.225777,0.05645 0.09172,0.05644 0.134056,0.148166 0.04939,0.09172 0.04939,0.204612 0,0.105833 -0.04939,0.211666 -0.01411,0.02117 -0.03528,0.01411 -0.02117,-0.0071 -0.03528,-0.02822 -0.01411,-0.141111 -0.134055,-0.246944 -0.112889,-0.112889 -0.359834,-0.112889 -0.268111,0 -0.515056,0.141111 -0.239889,0.141111 -0.493889,0.493889 -0.246944,0.352778 -0.508,0.952501 -0.254,0.599722 -0.550334,1.516945 0.162278,-0.0071 0.338667,-0.0071 0.183445,0 0.373945,0 0.03528,0.01411 0.02822,0.04233 0,0.02117 -0.0635,0.03528 -0.176389,0.0071 -0.352778,0.01411 -0.176389,0.0071 -0.359834,0.02117 -0.02117,0.07761 -0.04939,0.141111 -0.289278,0.924278 -0.592667,1.545167 -0.303389,0.627945 -0.620889,1.00189 -0.3175,0.381 -0.642056,0.536223 -0.331611,0.162277 -0.670278,0.162277 -0.239889,0 -0.338667,-0.105833 -0.105833,-0.105833 -0.105833,-0.246945 0,-0.0635 0.02822,-0.141111 0.02822,-0.07056 0.07055,-0.127 0.02117,-0.02117 0.04233,-0.0071 0.01411,0.01411 0.01411,0.03528 -0.02822,0.05645 -0.02117,0.127 0.0071,0.07761 0.0635,0.141112 0.04939,0.07055 0.155223,0.112889 0.09878,0.04939 0.261055,0.04939 0.169334,0 0.338667,-0.04233 0.162278,-0.04233 0.331612,-0.162278 0.162277,-0.112889 0.331611,-0.324555 0.162278,-0.211667 0.338667,-0.55739 0.176389,-0.338667 0.366889,-0.8255 0.1905,-0.486834 0.395111,-1.157112 0.01411,-0.03528 0.02117,-0.0635 0.0071,-0.03528 0.02117,-0.07056 -0.119945,0.01411 -0.239889,0.03528 -0.119945,0.01411 -0.239889,0.04233 -0.03528,-0.0071 -0.02117,-0.03528 0.02117,-0.02822 0.0635,-0.05645 0.04939,-0.02822 0.112889,-0.04939 0.0635,-0.02822 0.119944,-0.03528 0.05645,-0.0071 0.112889,-0.0071 0.0635,-0.0071 0.127,-0.01411 0.254001,-0.762001 0.543279,-1.375835 0.296333,-0.620889 0.620889,-1.058334 0.324556,-0.4445 0.670278,-0.684389 0.345723,-0.239889 0.698501,-0.239889 z m 0.338665,3.351391 q 0.03528,0.01411 0.02822,0.04233 -0.0071,0.02822 -0.0635,0.03528 -0.112889,0.0071 -0.254001,0.01411 -0.134055,0.0071 -0.275166,0.02117 -0.141112,0.352778 -0.232834,0.677334 -0.09172,0.324556 -0.09172,0.536222 0,0.23989 0.183444,0.23989 0.183445,0 0.402167,-0.324556 0.02117,-0.01411 0.04233,0.0071 0.02117,0.01411 0.01411,0.04939 -0.0635,0.09878 -0.148167,0.1905 -0.07761,0.08467 -0.162278,0.148167 -0.08467,0.0635 -0.162278,0.105834 -0.07761,0.03528 -0.127,0.03528 -0.155222,0 -0.232833,-0.09172 -0.07056,-0.09878 -0.07056,-0.232833 0,-0.232834 0.09878,-0.585612 0.09878,-0.352778 0.246945,-0.726723 -0.09172,0.01411 -0.176389,0.02822 -0.08467,0.01411 -0.162278,0.02822 -0.03528,-0.0071 -0.02117,-0.03528 0.02117,-0.02822 0.0635,-0.05644 0.04939,-0.02822 0.112889,-0.04939 0.0635,-0.02822 0.119945,-0.02822 0.03528,-0.0071 0.05644,-0.0071 0.02822,0 0.05644,0 0.09878,-0.218723 0.197556,-0.416278 0.09878,-0.204611 0.197556,-0.373945 0.04233,-0.04233 0.09172,-0.07055 0.05645,-0.03528 0.105834,-0.04233 0.04939,-0.01411 0.07761,-0.0071 0.02822,0 0.02117,0.02117 -0.119944,0.183445 -0.239889,0.409223 -0.112889,0.225778 -0.218722,0.465667 0.127,0 0.254,0 0.127,-0.0071 0.268111,-0.0071 z m -0.0635,1.714501 q 0.3175,-1.213556 0.712611,-2.187223 0.395112,-0.973668 0.825501,-1.658057 0.437445,-0.684389 0.889,-1.051278 0.451556,-0.373945 0.87489,-0.373945 0.155222,0 0.254,0.0635 0.105833,0.05644 0.141111,0.148167 0.04233,0.09172 0.02117,0.204611 -0.01411,0.112889 -0.09878,0.218722 -0.01411,0.02117 -0.03528,0.01411 -0.02117,-0.0071 -0.02117,-0.03528 0.02822,-0.141112 -0.08467,-0.268112 -0.112889,-0.127 -0.359834,-0.127 -0.331611,0 -0.677333,0.261056 -0.345723,0.261056 -0.691445,0.804334 -0.345723,0.536222 -0.68439,1.354667 -0.331611,0.818445 -0.642056,1.940279 0.112889,-0.218722 0.261056,-0.409222 0.148167,-0.197556 0.303389,-0.338667 0.155223,-0.141111 0.310445,-0.218722 0.162278,-0.08467 0.310444,-0.08467 0.08467,0 0.127001,0.04233 0.04233,0.04233 0.04233,0.09878 0,0.09172 -0.0635,0.204611 -0.148167,0.261056 -0.246945,0.536223 -0.09172,0.275167 -0.09172,0.500945 0,0.09878 0.02117,0.162278 0.02822,0.0635 0.08467,0.0635 0.07056,0 0.148167,-0.07056 0.08467,-0.07761 0.148167,-0.169333 0.02117,-0.01411 0.04233,0.0071 0.02117,0.01411 0.01411,0.04233 -0.04233,0.0635 -0.105833,0.134056 -0.0635,0.0635 -0.141111,0.127 -0.07056,0.05645 -0.148167,0.09172 -0.07761,0.03528 -0.141111,0.03528 -0.176389,0 -0.176389,-0.296333 0,-0.254 0.08467,-0.550334 0.08467,-0.303389 0.204611,-0.536222 0.04233,-0.07056 0.04233,-0.119945 0,-0.0635 -0.07761,-0.0635 -0.127,0 -0.275167,0.09878 -0.148167,0.09878 -0.303389,0.289278 -0.155222,0.1905 -0.296333,0.465667 -0.141112,0.268111 -0.254001,0.606778 -0.01411,0.04939 -0.07761,0.07761 -0.05644,0.02822 -0.112889,0.02822 -0.07761,0 -0.05644,-0.0635 z m 3.330221,-1.432278 q 0,0.09878 -0.07761,0.183444 -0.07761,0.08467 -0.211667,0.155222 -0.134055,0.0635 -0.310444,0.119945 -0.169334,0.05644 -0.359834,0.105833 -0.0071,0.07761 -0.01411,0.155223 0,0.07761 0,0.169333 0,0.176389 0.07761,0.296334 0.07761,0.119944 0.218723,0.119944 0.141111,0 0.261055,-0.07055 0.127,-0.07056 0.225778,-0.190501 0.02822,-0.01411 0.04233,0.0071 0.01411,0.02117 0,0.04939 -0.119945,0.162278 -0.30339,0.282222 -0.176389,0.112889 -0.373944,0.112889 -0.183445,0 -0.303389,-0.119944 -0.112889,-0.119945 -0.112889,-0.352778 0,-0.211667 0.07761,-0.444501 0.07761,-0.239889 0.204611,-0.437444 0.127,-0.197556 0.289278,-0.324556 0.169334,-0.127 0.352778,-0.127 0.134056,0 0.225778,0.09878 0.09172,0.09172 0.09172,0.211667 z M 38.00827,25.982081 q -0.162278,0 -0.289278,0.141112 -0.127,0.141111 -0.183444,0.4445 0.338667,-0.04939 0.493889,-0.141111 0.162278,-0.09878 0.162278,-0.218723 0,-0.09878 -0.04939,-0.162277 -0.04939,-0.0635 -0.134056,-0.0635 z m 4.635496,-2.511779 q -0.183444,-0.07056 -0.458611,-0.127 -0.275167,-0.05644 -0.564445,-0.05644 -0.430389,0 -0.740834,0.1905 -0.310445,0.183444 -0.493889,0.486833 -0.183445,0.296334 -0.246945,0.670278 -0.05644,0.373945 0.02117,0.740834 -0.0071,0.02822 -0.03528,0.04233 -0.02822,0.01411 -0.04233,-0.01411 -0.09878,-0.444501 -0.01411,-0.860779 0.08467,-0.423333 0.3175,-0.747889 0.232833,-0.331611 0.606778,-0.529167 0.381,-0.204611 0.881945,-0.204611 0.296334,0 0.5715,0.0635 0.275167,0.0635 0.49389,0.162278 0.04233,0.03528 -0.02117,0.08467 -0.373945,0.296334 -0.663223,0.670278 -0.282222,0.36689 -0.486833,0.783168 -0.197556,0.409222 -0.303389,0.846667 -0.09878,0.430389 -0.09878,0.853723 0,0.465667 0.162278,0.649111 0.162277,0.183445 0.430389,0.183445 0.366889,0 0.719667,-0.246945 0.352778,-0.246945 0.719667,-0.754945 0.373945,-0.515056 0.783167,-1.291167 0.416278,-0.783168 0.896056,-1.848557 0.02822,-0.05645 0.119945,-0.105833 0.09172,-0.04939 0.1905,-0.04939 0.112889,0 0.112889,0.04939 -0.127,0.148166 -0.282222,0.423333 -0.155223,0.268111 -0.310445,0.613834 -0.148167,0.338667 -0.296334,0.726723 -0.141111,0.388055 -0.254,0.762 -0.112889,0.366889 -0.183444,0.6985 -0.0635,0.324556 -0.0635,0.55739 0,0.402167 0.261055,0.402167 0.268112,0 0.522112,-0.395112 0.02117,-0.02117 0.04939,0 0.02822,0.01411 0.02117,0.04233 -0.07761,0.119944 -0.176389,0.239889 -0.09172,0.112889 -0.197555,0.211667 -0.105834,0.09172 -0.211667,0.155222 -0.09878,0.05644 -0.183445,0.05644 -0.197555,0 -0.289278,-0.162278 -0.08467,-0.162277 -0.08467,-0.388055 0,-0.352778 0.105833,-0.839612 0.105833,-0.486834 0.331611,-1.051278 -0.642056,1.2065 -1.27,1.82739 -0.627945,0.613833 -1.248835,0.613833 -0.338666,0 -0.515055,-0.225778 -0.169334,-0.232833 -0.169334,-0.656167 0,-0.430389 0.105833,-0.867834 0.112889,-0.437444 0.317501,-0.853722 0.204611,-0.423334 0.493889,-0.81139 0.296333,-0.388056 0.670278,-0.719667 z m 4.183956,3.683002 q 0.02117,-0.01411 0.04233,0 0.02117,0.01411 0.01411,0.04233 -0.119944,0.162278 -0.268111,0.289278 -0.141111,0.119944 -0.268111,0.119944 -0.218722,0 -0.218722,-0.282222 0,-0.239889 0.08467,-0.529167 0.08467,-0.296334 0.232834,-0.592667 0.02822,-0.04939 0.02822,-0.09878 0,-0.07761 -0.07056,-0.07761 -0.261055,0 -0.578556,0.359833 -0.310444,0.359834 -0.578555,1.12889 -0.01411,0.04233 -0.07761,0.07056 -0.0635,0.02117 -0.119944,0.02117 -0.07761,0 -0.05644,-0.0635 0.119945,-0.303389 0.246945,-0.684389 0.134056,-0.381 0.232833,-0.754945 0.02822,-0.134056 -0.04939,-0.134056 -0.07056,0 -0.141112,0.07056 -0.07055,0.07056 -0.148166,0.183445 -0.01411,0.01411 -0.03528,-0.0071 -0.01411,-0.02117 -0.0071,-0.04233 0.07761,-0.119945 0.211667,-0.246945 0.134056,-0.127 0.289278,-0.127 0.176389,0 0.119944,0.239889 -0.02822,0.155222 -0.07761,0.331611 -0.04939,0.169334 -0.105833,0.338667 0.09878,-0.1905 0.232833,-0.359833 0.134056,-0.169334 0.275167,-0.289278 0.148167,-0.119945 0.289278,-0.1905 0.148167,-0.07056 0.275167,-0.07056 0.08467,0 0.127,0.04233 0.04939,0.04233 0.04939,0.09878 0,0.09172 -0.04233,0.183445 -0.148167,0.268111 -0.254,0.564444 -0.09878,0.289278 -0.09878,0.536223 0,0.176389 0.112889,0.176389 0.148166,0 0.331611,-0.246945 z m 0.43039,-0.860778 q -0.02117,0.01411 -0.04233,-0.0071 -0.01411,-0.02822 0,-0.04939 0.09878,-0.09878 0.268111,-0.225778 0.169334,-0.127 0.338667,-0.211667 0.05644,0 0.05644,0.0635 -0.09172,0.162278 -0.183445,0.352778 -0.08467,0.1905 -0.155222,0.381 -0.0635,0.183445 -0.105834,0.359834 -0.04233,0.169333 -0.04233,0.282222 0,0.148167 0.09878,0.148167 0.07761,0 0.148167,-0.0635 0.07761,-0.07056 0.176389,-0.183445 0.01411,-0.01411 0.03528,0.0071 0.02117,0.02117 0.0071,0.04939 -0.127,0.155222 -0.275167,0.282222 -0.141111,0.127 -0.268111,0.127 -0.183445,0 -0.183445,-0.232833 0,-0.134056 0.04233,-0.3175 0.04939,-0.190501 0.119944,-0.381001 0.07056,-0.1905 0.155223,-0.366889 0.09172,-0.176389 0.176389,-0.303389 -0.07761,0.05645 -0.197556,0.148167 -0.112889,0.08467 -0.169334,0.141111 z m 0.635001,-0.797278 q -0.02117,0.02117 -0.04233,0.0071 -0.01411,-0.02117 -0.02117,-0.04939 -0.0071,-0.03528 -0.0071,-0.07761 0,-0.04233 0.02117,-0.07055 0.183444,-0.254 0.515056,-0.543278 0.02117,-0.0071 0.04233,0.01411 0.02117,0.01411 0.0071,0.02822 -0.148167,0.134056 -0.282223,0.324556 -0.134055,0.183444 -0.232833,0.366889 z m 1.502837,0.331611 q 0.03528,0.01411 0.02822,0.04233 -0.0071,0.02822 -0.0635,0.03528 -0.112889,0.0071 -0.254,0.01411 -0.134056,0.0071 -0.275167,0.02117 -0.141111,0.352778 -0.232834,0.677334 -0.09172,0.324556 -0.09172,0.536222 0,0.23989 0.183445,0.23989 0.183444,0 0.402167,-0.324556 0.02117,-0.01411 0.04233,0.0071 0.02117,0.01411 0.01411,0.04939 -0.0635,0.09878 -0.148167,0.1905 -0.07761,0.08467 -0.162278,0.148167 -0.08467,0.0635 -0.162277,0.105834 -0.07761,0.03528 -0.127001,0.03528 -0.155222,0 -0.232833,-0.09172 -0.07056,-0.09878 -0.07056,-0.232833 0,-0.232834 0.09878,-0.585612 0.09878,-0.352778 0.246945,-0.726723 -0.09172,0.01411 -0.176389,0.02822 -0.08467,0.01411 -0.162278,0.02822 -0.03528,-0.0071 -0.02117,-0.03528 0.02117,-0.02822 0.0635,-0.05644 0.04939,-0.02822 0.112889,-0.04939 0.0635,-0.02822 0.119945,-0.02822 0.03528,-0.0071 0.05644,-0.0071 0.02822,0 0.05644,0 0.09878,-0.218723 0.197555,-0.416278 0.09878,-0.204611 0.197556,-0.373945 0.04233,-0.04233 0.09172,-0.07055 0.05645,-0.03528 0.105834,-0.04233 0.04939,-0.01411 0.07761,-0.0071 0.02822,0 0.02117,0.02117 -0.119945,0.183445 -0.239889,0.409223 -0.112889,0.225778 -0.218723,0.465667 0.127,0 0.254,0 0.127,-0.0071 0.268112,-0.0071 z m 1.206497,0.282223 q 0,0.09878 -0.07761,0.183444 -0.07761,0.08467 -0.211667,0.155222 -0.134056,0.0635 -0.310445,0.119945 -0.169333,0.05644 -0.359833,0.105833 -0.0071,0.07761 -0.01411,0.155223 0,0.07761 0,0.169333 0,0.176389 0.07761,0.296334 0.07761,0.119944 0.218722,0.119944 0.141111,0 0.261056,-0.07055 0.127,-0.07056 0.225778,-0.190501 0.02822,-0.01411 0.04233,0.0071 0.01411,0.02117 0,0.04939 -0.119944,0.162278 -0.303389,0.282222 -0.176389,0.112889 -0.373945,0.112889 -0.183444,0 -0.303389,-0.119944 -0.112889,-0.119945 -0.112889,-0.352778 0,-0.211667 0.07761,-0.444501 0.07761,-0.239889 0.204612,-0.437444 0.127,-0.197556 0.289278,-0.324556 0.169333,-0.127 0.352778,-0.127 0.134055,0 0.225778,0.09878 0.09172,0.09172 0.09172,0.211667 z M 50.13678,25.982081 q -0.162278,0 -0.289278,0.141112 -0.127,0.141111 -0.183445,0.4445 0.338667,-0.04939 0.49389,-0.141111 0.162277,-0.09878 0.162277,-0.218723 0,-0.09878 -0.04939,-0.162277 -0.04939,-0.0635 -0.134056,-0.0635 z m 4.71311,-3.711224 q 0.183445,0 0.232834,0.141111 0.04939,0.141111 -0.04939,0.352778 -0.05645,0.04233 -0.07056,-0.02117 0.01411,-0.09878 -0.05644,-0.155222 -0.07056,-0.05644 -0.197556,-0.05644 -0.254,0 -0.515056,0.176389 -0.261056,0.176389 -0.508,0.493889 -0.246945,0.310444 -0.479778,0.733778 -0.232834,0.423334 -0.430389,0.917223 -0.197556,0.493889 -0.359834,1.037167 -0.155222,0.536223 -0.254,1.079501 -0.02822,0.162278 -0.01411,0.289278 0.01411,0.119944 0.09878,0.119944 0.07761,0 0.155222,-0.07761 0.07761,-0.08467 0.141111,-0.183444 0.01411,-0.01411 0.03528,0 0.02822,0.01411 0.02117,0.04233 -0.03528,0.0635 -0.09878,0.141111 -0.0635,0.07761 -0.141111,0.148167 -0.07056,0.0635 -0.148167,0.112889 -0.07761,0.04233 -0.141111,0.04233 -0.119945,0 -0.169334,-0.09878 -0.04233,-0.105833 -0.02822,-0.268111 0.0071,-0.119944 0.02822,-0.225778 0.02117,-0.105833 0.04939,-0.225778 -0.0635,0.148167 -0.169333,0.289278 -0.105834,0.134056 -0.218723,0.246945 -0.112889,0.112889 -0.225778,0.1905 -0.105833,0.07056 -0.183444,0.09172 -0.119945,0 -0.232834,-0.09878 -0.105833,-0.105833 -0.105833,-0.331611 0,-0.268111 0.09172,-0.515056 0.09172,-0.254 0.246945,-0.4445 0.162278,-0.1905 0.366889,-0.303389 0.211667,-0.119945 0.451556,-0.119945 0.07761,0 0.134055,0.02117 0.0635,0.02117 0.112889,0.05645 0.127,-0.381001 0.303389,-0.797279 0.183445,-0.416278 0.395112,-0.811389 0.211667,-0.402167 0.4445,-0.762001 0.239889,-0.359833 0.486834,-0.627945 0.254,-0.275166 0.508,-0.437444 0.254,-0.162278 0.493889,-0.162278 z m -3.570113,5.087059 q 0.07761,0 0.183444,-0.08467 0.112889,-0.09172 0.218723,-0.232834 0.112889,-0.141111 0.211667,-0.324555 0.105833,-0.1905 0.176389,-0.388056 0.02117,-0.07056 0.04233,-0.134056 0.02117,-0.0635 0.03528,-0.127 -0.02822,-0.08467 -0.105834,-0.119944 -0.07761,-0.04233 -0.176389,-0.04233 -0.148166,0 -0.289278,0.09172 -0.141111,0.08467 -0.254,0.239889 -0.105833,0.155222 -0.176389,0.366889 -0.0635,0.211667 -0.0635,0.465667 0,0.148166 0.05645,0.218722 0.0635,0.07056 0.141111,0.07056 z m 2.744608,-0.606778 q 0,-0.23989 0.119945,-0.437445 0.127,-0.204611 0.359833,-0.324556 0.02822,-0.01411 0.03528,0.02117 0.01411,0.02822 0,0.04939 -0.254,0.141111 -0.254,0.508 0,0.183445 0.07761,0.345722 0.07761,0.155223 0.218723,0.275167 0.148166,0.112889 0.352778,0.183445 0.211666,0.07056 0.479778,0.07056 0.642056,0 0.945445,-0.275166 0.310444,-0.275167 0.310444,-0.677334 0,-0.268111 -0.07761,-0.486834 -0.07761,-0.218722 -0.197555,-0.409222 -0.112889,-0.197556 -0.246945,-0.373945 -0.134056,-0.176389 -0.254,-0.352778 -0.112889,-0.176389 -0.1905,-0.366889 -0.07761,-0.1905 -0.07761,-0.416278 0,-0.211667 0.08467,-0.395112 0.08467,-0.1905 0.225778,-0.324555 0.141111,-0.141112 0.331611,-0.218723 0.197556,-0.08467 0.423334,-0.08467 0.3175,0 0.500945,0.162277 0.183444,0.162278 0.183444,0.36689 0,0.119944 -0.07761,0.261055 -0.07761,0.141112 -0.155222,0.246945 -0.02822,0.01411 -0.04939,0 -0.01411,-0.02117 -0.01411,-0.05645 0.09172,-0.112889 0.09172,-0.310444 0,-0.204611 -0.183444,-0.345723 -0.176389,-0.148166 -0.472723,-0.148166 -0.303389,0 -0.493889,0.176389 -0.183445,0.169333 -0.183445,0.430389 0,0.211667 0.07761,0.402167 0.08467,0.183444 0.204612,0.373944 0.119944,0.183445 0.254,0.373945 0.141111,0.183445 0.261056,0.388056 0.119944,0.197556 0.197555,0.423333 0.08467,0.218723 0.08467,0.479779 0,0.289278 -0.127,0.536222 -0.127,0.239889 -0.345723,0.416278 -0.218722,0.176389 -0.515055,0.275167 -0.296334,0.09172 -0.627945,0.09172 -0.62089,0 -0.952501,-0.239889 -0.324556,-0.239889 -0.324556,-0.613833 z m 4.487333,-0.924279 q 0.03528,0.01411 0.02822,0.04233 -0.0071,0.02822 -0.0635,0.03528 -0.112889,0.0071 -0.254,0.01411 -0.134056,0.0071 -0.275167,0.02117 -0.141111,0.352778 -0.232833,0.677334 -0.09172,0.324556 -0.09172,0.536222 0,0.23989 0.183445,0.23989 0.183445,0 0.402167,-0.324556 0.02117,-0.01411 0.04233,0.0071 0.02117,0.01411 0.01411,0.04939 -0.0635,0.09878 -0.148166,0.1905 -0.07761,0.08467 -0.162278,0.148167 -0.08467,0.0635 -0.162278,0.105834 -0.07761,0.03528 -0.127,0.03528 -0.155222,0 -0.232834,-0.09172 -0.07055,-0.09878 -0.07055,-0.232833 0,-0.232834 0.09878,-0.585612 0.09878,-0.352778 0.246944,-0.726723 -0.09172,0.01411 -0.176389,0.02822 -0.08467,0.01411 -0.162278,0.02822 -0.03528,-0.0071 -0.02117,-0.03528 0.02117,-0.02822 0.0635,-0.05644 0.04939,-0.02822 0.112889,-0.04939 0.0635,-0.02822 0.119944,-0.02822 0.03528,-0.0071 0.05645,-0.0071 0.02822,0 0.05644,0 0.09878,-0.218723 0.197556,-0.416278 0.09878,-0.204611 0.197556,-0.373945 0.04233,-0.04233 0.09172,-0.07055 0.05644,-0.03528 0.105833,-0.04233 0.04939,-0.01411 0.07761,-0.0071 0.02822,0 0.02117,0.02117 -0.119944,0.183445 -0.239889,0.409223 -0.112889,0.225778 -0.218722,0.465667 0.127,0 0.254,0 0.127,-0.0071 0.268111,-0.0071 z m 1.658053,1.333501 q 0.01411,-0.01411 0.03528,0 0.02117,0.01411 0.01411,0.04233 -0.148167,0.204612 -0.296333,0.303389 -0.141112,0.09878 -0.23989,0.09878 -0.0635,0 -0.105833,-0.0635 -0.03528,-0.0635 -0.04939,-0.169333 -0.0071,-0.112889 0.0071,-0.246945 0.02117,-0.141111 0.0635,-0.289278 -0.1905,0.296334 -0.402167,0.515056 -0.211667,0.211667 -0.409223,0.254 -0.127,0 -0.218722,-0.119944 -0.08467,-0.127 -0.08467,-0.388056 0,-0.232834 0.09172,-0.458611 0.09878,-0.232834 0.261055,-0.416278 0.162278,-0.190501 0.373945,-0.30339 0.211667,-0.112889 0.4445,-0.112889 0.127,0 0.218723,0.02822 0.09172,0.02822 0.169333,0.08467 0.04233,-0.03528 0.112889,-0.0635 0.07761,-0.03528 0.141111,-0.03528 0.03528,0 0.02117,0.03528 -0.162278,0.197556 -0.282223,0.437445 -0.112888,0.239889 -0.176389,0.465667 -0.0635,0.225778 -0.08467,0.402167 -0.01411,0.169333 0.02822,0.232834 0.03528,0.04939 0.127,0.0071 0.09172,-0.04939 0.239889,-0.239889 z m -1.227667,0.204611 q 0.07761,0 0.197555,-0.105833 0.127,-0.112889 0.261056,-0.289278 0.134056,-0.176389 0.261056,-0.395111 0.134055,-0.225778 0.232833,-0.451556 -0.02822,-0.09172 -0.134055,-0.148167 -0.09878,-0.05645 -0.232834,-0.05645 -0.155222,0 -0.296333,0.08467 -0.134056,0.07761 -0.239889,0.225778 -0.105834,0.141111 -0.169334,0.338667 -0.0635,0.197556 -0.0635,0.437445 0,0.155222 0.04939,0.261055 0.05644,0.09878 0.134056,0.09878 z m 2.850448,-1.538112 q 0.03528,0.01411 0.02822,0.04233 -0.0071,0.02822 -0.0635,0.03528 -0.112888,0.0071 -0.254,0.01411 -0.134055,0.0071 -0.275167,0.02117 -0.141111,0.352778 -0.232833,0.677334 -0.09172,0.324556 -0.09172,0.536222 0,0.23989 0.183444,0.23989 0.183445,0 0.402167,-0.324556 0.02117,-0.01411 0.04233,0.0071 0.02117,0.01411 0.01411,0.04939 -0.0635,0.09878 -0.148167,0.1905 -0.07761,0.08467 -0.162278,0.148167 -0.08467,0.0635 -0.162278,0.105834 -0.07761,0.03528 -0.127,0.03528 -0.155222,0 -0.232833,-0.09172 -0.07056,-0.09878 -0.07056,-0.232833 0,-0.232834 0.09878,-0.585612 0.09878,-0.352778 0.246944,-0.726723 -0.09172,0.01411 -0.176389,0.02822 -0.08467,0.01411 -0.162277,0.02822 -0.03528,-0.0071 -0.02117,-0.03528 0.02117,-0.02822 0.0635,-0.05644 0.04939,-0.02822 0.112889,-0.04939 0.0635,-0.02822 0.119944,-0.02822 0.03528,-0.0071 0.05645,-0.0071 0.02822,0 0.05644,0 0.09878,-0.218723 0.197556,-0.416278 0.09878,-0.204611 0.197556,-0.373945 0.04233,-0.04233 0.09172,-0.07055 0.05644,-0.03528 0.105833,-0.04233 0.04939,-0.01411 0.07761,-0.0071 0.02822,0 0.02117,0.02117 -0.119944,0.183445 -0.239889,0.409223 -0.112889,0.225778 -0.218722,0.465667 0.127,0 0.254,0 0.127,-0.0071 0.268111,-0.0071 z m 1.206497,0.282223 q 0,0.09878 -0.07761,0.183444 -0.07761,0.08467 -0.211667,0.155222 -0.134055,0.0635 -0.310444,0.119945 -0.169334,0.05644 -0.359834,0.105833 -0.0071,0.07761 -0.01411,0.155223 0,0.07761 0,0.169333 0,0.176389 0.07761,0.296334 0.07761,0.119944 0.218723,0.119944 0.141111,0 0.261055,-0.07055 0.127,-0.07056 0.225778,-0.190501 0.02822,-0.01411 0.04233,0.0071 0.01411,0.02117 0,0.04939 -0.119945,0.162278 -0.303389,0.282222 -0.176389,0.112889 -0.373945,0.112889 -0.183445,0 -0.303389,-0.119944 -0.112889,-0.119945 -0.112889,-0.352778 0,-0.211667 0.07761,-0.444501 0.07761,-0.239889 0.204611,-0.437444 0.127,-0.197556 0.289278,-0.324556 0.169334,-0.127 0.352778,-0.127 0.134056,0 0.225778,0.09878 0.09172,0.09172 0.09172,0.211667 z m -0.465667,-0.127001 q -0.162277,0 -0.289277,0.141112 -0.127001,0.141111 -0.183445,0.4445 0.338667,-0.04939 0.493889,-0.141111 0.162278,-0.09878 0.162278,-0.218723 0,-0.09878 -0.04939,-0.162277 -0.04939,-0.0635 -0.134056,-0.0635 z m 1.446387,-0.183444 q 0.141111,0 0.232833,0.04939 0.09878,0.04233 0.09878,0.09878 0,0.07761 -0.03528,0.176389 -0.02822,0.09878 -0.0635,0.162278 -0.01411,0.01411 -0.04233,0.0071 -0.02117,-0.01411 -0.01411,-0.03528 0.02117,-0.04939 0.02822,-0.112889 0.0071,-0.0635 -0.0071,-0.112889 -0.03528,-0.141111 -0.197555,-0.141111 -0.119945,0 -0.197556,0.07056 -0.07056,0.07055 -0.07056,0.211667 0,0.112889 0.05644,0.218722 0.0635,0.09878 0.134055,0.204611 0.07761,0.09878 0.134056,0.218723 0.0635,0.112889 0.0635,0.254 0,0.225778 -0.162278,0.381 -0.155222,0.155222 -0.472722,0.155222 -0.218723,0 -0.359834,-0.07761 -0.141111,-0.07761 -0.141111,-0.162278 0,-0.0635 0.07761,-0.1905 0.07761,-0.127 0.176389,-0.204611 0.02117,-0.01411 0.03528,0.0071 0.02117,0.02117 0.0071,0.04233 -0.05644,0.05644 -0.08467,0.134055 -0.02822,0.07056 -0.01411,0.127001 0.02117,0.119944 0.105833,0.183444 0.09172,0.05645 0.211667,0.05645 0.183444,0 0.282222,-0.09878 0.105834,-0.09878 0.105834,-0.254 0,-0.134056 -0.0635,-0.246945 -0.0635,-0.119945 -0.141112,-0.225778 -0.07055,-0.112889 -0.134055,-0.218722 -0.05645,-0.112889 -0.05645,-0.239889 0,-0.183445 0.134056,-0.310445 0.141111,-0.127 0.373945,-0.127 z"
     id="text1"
     aria-label="Free the people of the United States" />
  <path
     style="font-size:7.05556px;line-height:1;font-family:Tangerine;-inkscape-font-specification:Tangerine;text-align:center;letter-spacing:0px;text-anchor:middle;fill:#f9f9f9;stroke-width:0.00072"
     d="m 6.1736126,31.848776 q -0.021167,0.01411 -0.042333,-0.0071 -0.014111,-0.02822 0,-0.04939 0.098778,-0.09878 0.2681113,-0.225778 0.1693334,-0.127 0.3386669,-0.211666 0.056444,0 0.056444,0.0635 -0.091722,0.162277 -0.1834445,0.352778 -0.084667,0.1905 -0.1552223,0.381 -0.0635,0.183444 -0.1058335,0.359833 -0.042333,0.169334 -0.042333,0.282223 0,0.148167 0.098778,0.148167 0.077611,0 0.1481668,-0.0635 0.077611,-0.07056 0.176389,-0.183445 0.014111,-0.01411 0.035278,0.0071 0.021167,0.02117 0.00706,0.04939 -0.1270001,0.155223 -0.2751669,0.282223 -0.1411112,0.127 -0.2681113,0.127 -0.1834445,0 -0.1834445,-0.232834 0,-0.134055 0.042333,-0.3175 0.049389,-0.1905 0.1199445,-0.381 0.070556,-0.1905 0.1552224,-0.366889 0.091722,-0.176389 0.176389,-0.303389 -0.077611,0.05644 -0.1975557,0.148167 -0.112889,0.08467 -0.1693335,0.141111 z m 0.6350005,-0.797279 q -0.021167,0.02117 -0.042333,0.0071 -0.014111,-0.02117 -0.021167,-0.04939 -0.00706,-0.03528 -0.00706,-0.07761 0,-0.04233 0.021167,-0.07056 0.1834446,-0.254 0.5150559,-0.543278 0.021167,-0.0071 0.042333,0.01411 0.021167,0.01411 0.00706,0.02822 -0.1481667,0.134055 -0.2822224,0.324555 -0.1340556,0.183445 -0.2328334,0.366889 z m 2.039058,1.658057 q 0.021167,-0.01411 0.042333,0 0.021167,0.01411 0.014111,0.04233 -0.1199445,0.162278 -0.2681113,0.289278 -0.1411112,0.119945 -0.2681113,0.119945 -0.2187223,0 -0.2187223,-0.282222 0,-0.23989 0.084667,-0.529167 0.084667,-0.296334 0.2328335,-0.592668 0.028222,-0.04939 0.028222,-0.09878 0,-0.07761 -0.070556,-0.07761 -0.2610557,0 -0.5785559,0.359834 -0.3104446,0.359834 -0.5785559,1.12889 -0.014111,0.04233 -0.077611,0.07056 -0.0635,0.02117 -0.1199445,0.02117 -0.077611,0 -0.056445,-0.0635 0.1199445,-0.303389 0.2469446,-0.684389 0.1340557,-0.381001 0.2328335,-0.754945 0.028222,-0.134056 -0.049389,-0.134056 -0.070556,0 -0.1411112,0.07056 -0.070556,0.07055 -0.1481668,0.183444 -0.014111,0.01411 -0.035278,-0.0071 -0.014111,-0.02117 -0.00706,-0.04233 0.077611,-0.119944 0.2116669,-0.246944 0.1340556,-0.127 0.2892779,-0.127 0.176389,0 0.1199445,0.239889 -0.028222,0.155222 -0.077611,0.331611 -0.049389,0.169333 -0.1058334,0.338667 0.098778,-0.1905 0.2328335,-0.359834 0.1340556,-0.169333 0.2751668,-0.289278 0.1481668,-0.119944 0.289278,-0.1905 0.1481667,-0.07055 0.2751668,-0.07055 0.084667,0 0.1270001,0.04233 0.049389,0.04233 0.049389,0.09878 0,0.09172 -0.042333,0.183444 -0.1481668,0.268112 -0.2540002,0.564445 -0.098778,0.289278 -0.098778,0.536223 0,0.176389 0.112889,0.176389 0.1481668,0 0.3316113,-0.246945 z m 2.2648349,-1.354667 q 0.1905,0 0.282222,0.127 0.09172,0.127 0.09172,0.331611 0,0.239889 -0.09172,0.479778 -0.09172,0.239889 -0.232833,0.437445 -0.141111,0.1905 -0.310445,0.310444 -0.162278,0.119945 -0.303389,0.119945 -0.169333,0 -0.268111,-0.134056 -0.09878,-0.134055 -0.09878,-0.381 0,-0.197556 0.07761,-0.423334 0.07761,-0.225777 0.204611,-0.416278 0.134056,-0.197555 0.296334,-0.324555 0.169333,-0.127 0.352778,-0.127 z m -0.423334,1.587501 q 0.105834,0 0.204612,-0.07056 0.105833,-0.07761 0.183444,-0.197556 0.07761,-0.127 0.119945,-0.289278 0.04939,-0.162278 0.04939,-0.338667 0,-0.211666 -0.07056,-0.331611 -0.07056,-0.127 -0.232833,-0.127 -0.105834,0 -0.204612,0.07761 -0.09878,0.07056 -0.176389,0.197556 -0.07056,0.119944 -0.112889,0.289278 -0.04233,0.162278 -0.04233,0.345722 0,0.444501 0.282222,0.444501 z m 1.721559,-1.389946 q 0,0.105834 -0.02117,0.246945 -0.02117,0.141111 -0.05645,0.282222 0.141111,-0.338667 0.310445,-0.529167 0.169333,-0.197555 0.366889,-0.197555 0.07761,0 0.141111,0.04233 0.0635,0.04233 0.0635,0.119944 0,0.05645 -0.04233,0.148167 -0.04233,0.08467 -0.08467,0.127 -0.04233,0.02822 -0.04233,-0.02117 0,-0.119945 -0.162278,-0.119945 -0.246945,0 -0.4445,0.373945 -0.197556,0.366889 -0.373945,1.023056 -0.01411,0.07056 -0.09878,0.09172 -0.07761,0.02117 -0.134055,0.02117 -0.07761,0 -0.03528,-0.07761 0.0635,-0.148167 0.119944,-0.3175 0.05644,-0.176389 0.105834,-0.352778 0.05644,-0.176389 0.09172,-0.345723 0.03528,-0.169333 0.05644,-0.310445 0.02822,-0.211666 -0.07056,-0.211666 -0.05645,0 -0.134056,0.0635 -0.07056,0.0635 -0.134055,0.148166 -0.02822,0.01411 -0.04939,0 -0.02117,-0.02117 -0.0071,-0.04939 0.105833,-0.134056 0.232834,-0.23989 0.134055,-0.112888 0.246944,-0.112888 0.155222,0 0.155222,0.197555 z m 4.769557,-3.725336 q 0.183445,0 0.232834,0.141112 0.04939,0.141111 -0.04939,0.352778 -0.05645,0.04233 -0.07056,-0.02117 0.01411,-0.09878 -0.05644,-0.155222 -0.07056,-0.05645 -0.197556,-0.05645 -0.254,0 -0.515056,0.176389 -0.261055,0.176389 -0.508,0.493889 -0.246945,0.310445 -0.479778,0.733779 -0.232834,0.423333 -0.430389,0.917222 -0.197556,0.49389 -0.359834,1.037168 -0.155222,0.536222 -0.254,1.079501 -0.02822,0.162277 -0.01411,0.289277 0.01411,0.119945 0.09878,0.119945 0.07761,0 0.155222,-0.07761 0.07761,-0.08467 0.141111,-0.183445 0.01411,-0.01411 0.03528,0 0.02822,0.01411 0.02117,0.04233 -0.03528,0.0635 -0.09878,0.141111 -0.0635,0.07761 -0.141111,0.148167 -0.07056,0.0635 -0.148167,0.112889 -0.07761,0.04233 -0.141111,0.04233 -0.119945,0 -0.169334,-0.09878 -0.04233,-0.105833 -0.02822,-0.268111 0.0071,-0.119945 0.02822,-0.225778 0.02117,-0.105834 0.04939,-0.225778 -0.0635,0.148167 -0.169333,0.289278 -0.105834,0.134056 -0.218723,0.246945 -0.112889,0.112888 -0.225778,0.1905 -0.105833,0.07056 -0.183444,0.09172 -0.119945,0 -0.232834,-0.09878 -0.105833,-0.105833 -0.105833,-0.331611 0,-0.268112 0.09172,-0.515056 0.09172,-0.254 0.246945,-0.4445 0.162278,-0.190501 0.366889,-0.30339 0.211667,-0.119944 0.451556,-0.119944 0.07761,0 0.134056,0.02117 0.0635,0.02117 0.112888,0.05644 0.127001,-0.381 0.30339,-0.797278 0.183444,-0.416278 0.395111,-0.81139 0.211667,-0.402166 0.4445,-0.762 0.239889,-0.359834 0.486834,-0.627945 0.254,-0.275167 0.508,-0.437445 0.254,-0.162278 0.493889,-0.162278 z m -3.570113,5.087059 q 0.07761,0 0.183445,-0.08467 0.112889,-0.09172 0.218722,-0.232834 0.112889,-0.141111 0.211667,-0.324556 0.105833,-0.1905 0.176389,-0.388055 0.02117,-0.07056 0.04233,-0.134056 0.02117,-0.0635 0.03528,-0.127 -0.02822,-0.08467 -0.105834,-0.119945 -0.07761,-0.04233 -0.176389,-0.04233 -0.148166,0 -0.289277,0.09172 -0.141112,0.08467 -0.254001,0.239889 -0.105833,0.155223 -0.176389,0.366889 -0.0635,0.211667 -0.0635,0.465667 0,0.148167 0.05645,0.218723 0.0635,0.07055 0.141111,0.07055 z m 2.786945,-1.248834 q 0,0.09878 -0.07761,0.183445 -0.07761,0.08467 -0.211667,0.155222 -0.134055,0.0635 -0.310444,0.119945 -0.169334,0.05644 -0.359834,0.105833 -0.0071,0.07761 -0.01411,0.155222 0,0.07761 0,0.169334 0,0.176389 0.07761,0.296333 0.07761,0.119945 0.218723,0.119945 0.141111,0 0.261055,-0.07056 0.127,-0.07055 0.225778,-0.1905 0.02822,-0.01411 0.04233,0.0071 0.01411,0.02117 0,0.04939 -0.119945,0.162277 -0.303389,0.282222 -0.176389,0.112889 -0.373945,0.112889 -0.183445,0 -0.303389,-0.119945 -0.112889,-0.119944 -0.112889,-0.352778 0,-0.211666 0.07761,-0.4445 0.07761,-0.239889 0.204611,-0.437445 0.127,-0.197555 0.289278,-0.324555 0.169334,-0.127 0.352778,-0.127 0.134056,0 0.225778,0.09878 0.09172,0.09172 0.09172,0.211667 z m -0.465667,-0.127 q -0.162277,0 -0.289278,0.141111 -0.127,0.141112 -0.183444,0.444501 0.338667,-0.04939 0.493889,-0.141112 0.162278,-0.09878 0.162278,-0.218722 0,-0.09878 -0.04939,-0.162278 -0.04939,-0.0635 -0.134056,-0.0635 z m 1.319385,0.01411 q 0,0.105834 -0.02117,0.246945 -0.02117,0.141111 -0.05645,0.282222 0.141111,-0.338667 0.310445,-0.529167 0.169333,-0.197555 0.366889,-0.197555 0.07761,0 0.141111,0.04233 0.0635,0.04233 0.0635,0.119944 0,0.05645 -0.04233,0.148167 -0.04233,0.08467 -0.08467,0.127 -0.04233,0.02822 -0.04233,-0.02117 0,-0.119945 -0.162278,-0.119945 -0.246945,0 -0.4445,0.373945 -0.197556,0.366889 -0.373945,1.023056 -0.01411,0.07056 -0.09878,0.09172 -0.07761,0.02117 -0.134056,0.02117 -0.07761,0 -0.03528,-0.07761 0.0635,-0.148167 0.119944,-0.3175 0.05645,-0.176389 0.105834,-0.352778 0.05644,-0.176389 0.09172,-0.345723 0.03528,-0.169333 0.05644,-0.310445 0.02822,-0.211666 -0.07055,-0.211666 -0.05645,0 -0.134056,0.0635 -0.07055,0.0635 -0.134056,0.148166 -0.02822,0.01411 -0.04939,0 -0.02117,-0.02117 -0.0071,-0.04939 0.105833,-0.134056 0.232833,-0.23989 0.134056,-0.112888 0.246945,-0.112888 0.155222,0 0.155222,0.197555 z m 3.033886,-0.169333 q 0.03528,0.01411 0.02822,0.04233 -0.0071,0.02822 -0.0635,0.03528 -0.112889,0.0071 -0.254,0.01411 -0.134055,0.0071 -0.275167,0.02117 -0.141111,0.352778 -0.232833,0.677334 -0.09172,0.324555 -0.09172,0.536222 0,0.239889 0.183444,0.239889 0.183445,0 0.402167,-0.324556 0.02117,-0.01411 0.04233,0.0071 0.02117,0.01411 0.01411,0.04939 -0.0635,0.09878 -0.148167,0.1905 -0.07761,0.08467 -0.162278,0.148167 -0.08467,0.0635 -0.162278,0.105833 -0.07761,0.03528 -0.127,0.03528 -0.155222,0 -0.232834,-0.09172 -0.07055,-0.09878 -0.07055,-0.232834 0,-0.232833 0.09878,-0.585611 0.09878,-0.352778 0.246944,-0.726723 -0.09172,0.01411 -0.176389,0.02822 -0.08467,0.01411 -0.162278,0.02822 -0.03528,-0.0071 -0.02117,-0.03528 0.02117,-0.02822 0.0635,-0.05645 0.04939,-0.02822 0.112889,-0.04939 0.0635,-0.02822 0.119944,-0.02822 0.03528,-0.0071 0.05645,-0.0071 0.02822,0 0.05644,0 0.09878,-0.218722 0.197556,-0.416278 0.09878,-0.204611 0.197556,-0.373944 0.04233,-0.04233 0.09172,-0.07056 0.05644,-0.03528 0.105833,-0.04233 0.04939,-0.01411 0.07761,-0.0071 0.02822,0 0.02117,0.02117 -0.119944,0.183444 -0.239889,0.409222 -0.112889,0.225778 -0.218722,0.465667 0.127,0 0.254,0 0.127,-0.0071 0.268111,-0.0071 z m 0.896053,-0.02822 q 0.1905,0 0.282222,0.127 0.09172,0.127 0.09172,0.331611 0,0.239889 -0.09172,0.479778 -0.09172,0.239889 -0.232833,0.437445 -0.141112,0.1905 -0.310445,0.310444 -0.162278,0.119945 -0.303389,0.119945 -0.169334,0 -0.268111,-0.134056 -0.09878,-0.134055 -0.09878,-0.381 0,-0.197556 0.07761,-0.423334 0.07761,-0.225777 0.204611,-0.416278 0.134056,-0.197555 0.296334,-0.324555 0.169333,-0.127 0.352778,-0.127 z m -0.423334,1.587501 q 0.105833,0 0.204611,-0.07056 0.105834,-0.07761 0.183445,-0.197556 0.07761,-0.127 0.119944,-0.289278 0.04939,-0.162278 0.04939,-0.338667 0,-0.211666 -0.07055,-0.331611 -0.07056,-0.127 -0.232834,-0.127 -0.105833,0 -0.204611,0.07761 -0.09878,0.07056 -0.176389,0.197556 -0.07056,0.119944 -0.112889,0.289278 -0.04233,0.162278 -0.04233,0.345722 0,0.444501 0.282222,0.444501 z m 5.199949,-4.91067 q 0.134055,0 0.225778,0.05644 0.09172,0.05645 0.134055,0.148167 0.04939,0.09172 0.04939,0.204611 0,0.105834 -0.04939,0.211667 -0.01411,0.02117 -0.03528,0.01411 -0.02117,-0.0071 -0.03528,-0.02822 -0.01411,-0.141111 -0.134056,-0.246945 -0.112889,-0.112889 -0.359834,-0.112889 -0.268111,0 -0.515055,0.141112 -0.239889,0.141111 -0.49389,0.493889 -0.246944,0.352778 -0.508,0.9525 -0.254,0.599723 -0.550334,1.516946 0.162278,-0.0071 0.338667,-0.0071 0.183445,0 0.373945,0 0.03528,0.01411 0.02822,0.04233 0,0.02117 -0.0635,0.03528 -0.176389,0.0071 -0.352778,0.01411 -0.176389,0.0071 -0.359833,0.02117 -0.02117,0.07761 -0.04939,0.141111 -0.289278,0.924279 -0.592667,1.545168 -0.30339,0.627945 -0.62089,1.00189 -0.3175,0.381 -0.642056,0.536222 -0.331611,0.162278 -0.670278,0.162278 -0.239889,0 -0.338667,-0.105833 -0.105833,-0.105834 -0.105833,-0.246945 0,-0.0635 0.02822,-0.141111 0.02822,-0.07056 0.07056,-0.127 0.02117,-0.02117 0.04233,-0.0071 0.01411,0.01411 0.01411,0.03528 -0.02822,0.05644 -0.02117,0.127 0.0071,0.07761 0.0635,0.141111 0.04939,0.07056 0.155223,0.112889 0.09878,0.04939 0.261056,0.04939 0.169333,0 0.338666,-0.04233 0.162278,-0.04233 0.331612,-0.162278 0.162278,-0.112889 0.331611,-0.324556 0.162278,-0.211667 0.338667,-0.557389 0.176389,-0.338667 0.366889,-0.825501 0.1905,-0.486833 0.395111,-1.157111 0.01411,-0.03528 0.02117,-0.0635 0.0071,-0.03528 0.02117,-0.07055 -0.119945,0.01411 -0.239889,0.03528 -0.119945,0.01411 -0.239889,0.04233 -0.03528,-0.0071 -0.02117,-0.03528 0.02117,-0.02822 0.0635,-0.05644 0.04939,-0.02822 0.112889,-0.04939 0.0635,-0.02822 0.119945,-0.03528 0.05644,-0.0071 0.112889,-0.0071 0.0635,-0.0071 0.127,-0.01411 0.254,-0.762 0.543278,-1.375834 0.296333,-0.620889 0.620889,-1.058334 0.324556,-0.4445 0.670278,-0.684389 0.345723,-0.239889 0.698501,-0.239889 z m -1.030112,3.323169 q 0.190501,0 0.282223,0.127 0.09172,0.127 0.09172,0.331611 0,0.239889 -0.09172,0.479778 -0.09172,0.239889 -0.232834,0.437445 -0.141111,0.1905 -0.310444,0.310444 -0.162278,0.119945 -0.303389,0.119945 -0.169334,0 -0.268112,-0.134056 -0.09878,-0.134055 -0.09878,-0.381 0,-0.197556 0.07761,-0.423334 0.07761,-0.225777 0.204611,-0.416278 0.134056,-0.197555 0.296333,-0.324555 0.169334,-0.127 0.352778,-0.127 z m -0.423333,1.587501 q 0.105833,0 0.204611,-0.07056 0.105834,-0.07761 0.183445,-0.197556 0.07761,-0.127 0.119944,-0.289278 0.04939,-0.162278 0.04939,-0.338667 0,-0.211666 -0.07056,-0.331611 -0.07056,-0.127 -0.232834,-0.127 -0.105833,0 -0.204611,0.07761 -0.09878,0.07056 -0.176389,0.197556 -0.07056,0.119944 -0.112889,0.289278 -0.04233,0.162278 -0.04233,0.345722 0,0.444501 0.282223,0.444501 z m 1.721559,-1.389946 q 0,0.105834 -0.02117,0.246945 -0.02117,0.141111 -0.05644,0.282222 0.141111,-0.338667 0.310444,-0.529167 0.169334,-0.197555 0.36689,-0.197555 0.07761,0 0.141111,0.04233 0.0635,0.04233 0.0635,0.119944 0,0.05645 -0.04233,0.148167 -0.04233,0.08467 -0.08467,0.127 -0.04233,0.02822 -0.04233,-0.02117 0,-0.119945 -0.162278,-0.119945 -0.246944,0 -0.4445,0.373945 -0.197555,0.366889 -0.373944,1.023056 -0.01411,0.07056 -0.09878,0.09172 -0.07761,0.02117 -0.134056,0.02117 -0.07761,0 -0.03528,-0.07761 0.0635,-0.148167 0.119945,-0.3175 0.05644,-0.176389 0.105833,-0.352778 0.05645,-0.176389 0.09172,-0.345723 0.03528,-0.169333 0.05645,-0.310445 0.02822,-0.211666 -0.07056,-0.211666 -0.05644,0 -0.134055,0.0635 -0.07056,0.0635 -0.134056,0.148166 -0.02822,0.01411 -0.04939,0 -0.02117,-0.02117 -0.0071,-0.04939 0.105833,-0.134056 0.232833,-0.23989 0.134056,-0.112888 0.246945,-0.112888 0.155222,0 0.155222,0.197555 z m 3.033888,0.127 q 0,-0.148166 -0.105833,-0.148166 -0.105834,0 -0.232834,0.105833 -0.127,0.105833 -0.268111,0.303389 -0.134056,0.197556 -0.275167,0.486834 -0.134055,0.282222 -0.261056,0.642056 -0.01411,0.04233 -0.07761,0.07056 -0.05644,0.02117 -0.112889,0.02117 -0.08467,0 -0.0635,-0.0635 0.04233,-0.127 0.112889,-0.3175 0.07761,-0.1905 0.141111,-0.388056 0.07056,-0.204611 0.119945,-0.381 0.04939,-0.176389 0.04939,-0.275167 0,-0.197556 -0.119945,-0.197556 -0.183444,0 -0.465667,0.395111 -0.282222,0.395112 -0.536222,1.135946 -0.01411,0.04233 -0.0635,0.07056 -0.04939,0.02117 -0.105834,0.02117 -0.03528,0 -0.05644,-0.01411 -0.02117,-0.01411 -0.0071,-0.04939 0.05645,-0.155222 0.119945,-0.338667 0.0635,-0.1905 0.127,-0.381 0.0635,-0.1905 0.112889,-0.373945 0.05644,-0.183444 0.09172,-0.345722 0.03528,-0.127 -0.03528,-0.127 -0.05644,0 -0.134055,0.07761 -0.07761,0.07761 -0.155223,0.183444 -0.02117,0.01411 -0.04233,0 -0.02117,-0.02117 -0.0071,-0.04233 0.105833,-0.148167 0.232833,-0.268111 0.134056,-0.127 0.268111,-0.127 0.09172,0 0.112889,0.07055 0.02822,0.07056 0.0071,0.169334 -0.03528,0.155222 -0.07056,0.289278 -0.02822,0.127 -0.07761,0.261055 0.183445,-0.352778 0.402167,-0.5715 0.225778,-0.218722 0.4445,-0.218722 0.08467,0 0.134056,0.0635 0.05644,0.0635 0.05644,0.176389 0,0.148166 -0.02822,0.296333 -0.02822,0.148167 -0.08467,0.303389 0.211667,-0.402167 0.451556,-0.620889 0.246945,-0.218722 0.486834,-0.218722 0.07761,0 0.127,0.05644 0.04939,0.05644 0.04939,0.148167 0,0.127 -0.05645,0.282222 -0.04939,0.148167 -0.112889,0.310445 -0.0635,0.162278 -0.119944,0.324556 -0.04939,0.155222 -0.04939,0.296333 0,0.176389 0.105833,0.176389 0.112889,0 0.310445,-0.232833 0.01411,-0.01411 0.02822,0.0071 0.02117,0.02117 0.0071,0.04939 -0.04233,0.05644 -0.105834,0.127 -0.0635,0.0635 -0.134055,0.127 -0.0635,0.05645 -0.141111,0.09878 -0.07761,0.03528 -0.148167,0.03528 -0.162278,0 -0.162278,-0.268111 0,-0.169334 0.04939,-0.338667 0.04939,-0.176389 0.105833,-0.331612 0.0635,-0.162277 0.112889,-0.303389 0.04939,-0.141111 0.04939,-0.239889 z m 3.365501,1.037168 q 0.01411,-0.01411 0.03528,0 0.02117,0.01411 0.01411,0.04233 -0.148167,0.204611 -0.296334,0.303389 -0.141111,0.09878 -0.239889,0.09878 -0.0635,0 -0.105833,-0.0635 -0.03528,-0.0635 -0.04939,-0.169334 -0.0071,-0.112889 0.0071,-0.246944 0.02117,-0.141111 0.0635,-0.289278 -0.1905,0.296333 -0.402167,0.515056 -0.211666,0.211667 -0.409222,0.254 -0.127,0 -0.218723,-0.119945 -0.08467,-0.127 -0.08467,-0.388055 0,-0.232834 0.09172,-0.458612 0.09878,-0.232833 0.261056,-0.416278 0.162278,-0.1905 0.373944,-0.303389 0.211667,-0.112889 0.444501,-0.112889 0.127,0 0.218722,0.02822 0.09172,0.02822 0.169334,0.08467 0.04233,-0.03528 0.112888,-0.0635 0.07761,-0.03528 0.141112,-0.03528 0.03528,0 0.02117,0.03528 -0.162278,0.197556 -0.282222,0.437445 -0.112889,0.239889 -0.176389,0.465667 -0.0635,0.225778 -0.08467,0.402167 -0.01411,0.169333 0.02822,0.232833 0.03528,0.04939 0.127001,0.0071 0.09172,-0.04939 0.239889,-0.239889 z m -1.227668,0.204611 q 0.07761,0 0.197556,-0.105834 0.127,-0.112888 0.261056,-0.289277 0.134055,-0.176389 0.261055,-0.395112 0.134056,-0.225778 0.232834,-0.451556 -0.02822,-0.09172 -0.134056,-0.148166 -0.09878,-0.05645 -0.232833,-0.05645 -0.155223,0 -0.296334,0.08467 -0.134056,0.07761 -0.239889,0.225778 -0.105833,0.141111 -0.169333,0.338667 -0.0635,0.197555 -0.0635,0.437444 0,0.155223 0.04939,0.261056 0.05644,0.09878 0.134055,0.09878 z m 4.967117,-1.241779 q 0,-0.148166 -0.105833,-0.148166 -0.105834,0 -0.232834,0.105833 -0.127,0.105833 -0.268111,0.303389 -0.134056,0.197556 -0.275167,0.486834 -0.134056,0.282222 -0.261056,0.642056 -0.01411,0.04233 -0.07761,0.07056 -0.05644,0.02117 -0.112889,0.02117 -0.08467,0 -0.0635,-0.0635 0.04233,-0.127 0.112889,-0.3175 0.07761,-0.1905 0.141111,-0.388056 0.07056,-0.204611 0.119945,-0.381 0.04939,-0.176389 0.04939,-0.275167 0,-0.197556 -0.119945,-0.197556 -0.183444,0 -0.465667,0.395111 -0.282222,0.395112 -0.536222,1.135946 -0.01411,0.04233 -0.0635,0.07056 -0.04939,0.02117 -0.105834,0.02117 -0.03528,0 -0.05644,-0.01411 -0.02117,-0.01411 -0.0071,-0.04939 0.05644,-0.155222 0.119945,-0.338667 0.0635,-0.1905 0.127,-0.381 0.0635,-0.1905 0.112889,-0.373945 0.05644,-0.183444 0.09172,-0.345722 0.03528,-0.127 -0.03528,-0.127 -0.05644,0 -0.134055,0.07761 -0.07761,0.07761 -0.155223,0.183444 -0.02117,0.01411 -0.04233,0 -0.02117,-0.02117 -0.0071,-0.04233 0.105834,-0.148167 0.232834,-0.268111 0.134056,-0.127 0.268111,-0.127 0.09172,0 0.112889,0.07055 0.02822,0.07056 0.0071,0.169334 -0.03528,0.155222 -0.07056,0.289278 -0.02822,0.127 -0.07761,0.261055 0.183445,-0.352778 0.402167,-0.5715 0.225778,-0.218722 0.4445,-0.218722 0.08467,0 0.134056,0.0635 0.05644,0.0635 0.05644,0.176389 0,0.148166 -0.02822,0.296333 -0.02822,0.148167 -0.08467,0.303389 0.211667,-0.402167 0.451556,-0.620889 0.246945,-0.218722 0.486834,-0.218722 0.07761,0 0.127,0.05644 0.04939,0.05644 0.04939,0.148167 0,0.127 -0.05644,0.282222 -0.04939,0.148167 -0.112889,0.310445 -0.0635,0.162278 -0.119944,0.324556 -0.04939,0.155222 -0.04939,0.296333 0,0.176389 0.105833,0.176389 0.112889,0 0.310445,-0.232833 0.01411,-0.01411 0.02822,0.0071 0.02117,0.02117 0.0071,0.04939 -0.04233,0.05644 -0.105834,0.127 -0.0635,0.0635 -0.134055,0.127 -0.0635,0.05645 -0.141111,0.09878 -0.07761,0.03528 -0.148167,0.03528 -0.162278,0 -0.162278,-0.268111 0,-0.169334 0.04939,-0.338667 0.04939,-0.176389 0.105833,-0.331612 0.0635,-0.162277 0.112889,-0.303389 0.04939,-0.141111 0.04939,-0.239889 z m 1.545168,-0.324555 q 0.1905,0 0.282222,0.127 0.09172,0.127 0.09172,0.331611 0,0.239889 -0.09172,0.479778 -0.09172,0.239889 -0.232833,0.437445 -0.141112,0.1905 -0.310445,0.310444 -0.162278,0.119945 -0.303389,0.119945 -0.169334,0 -0.268111,-0.134056 -0.09878,-0.134055 -0.09878,-0.381 0,-0.197556 0.07761,-0.423334 0.07761,-0.225777 0.204611,-0.416278 0.134056,-0.197555 0.296334,-0.324555 0.169333,-0.127 0.352778,-0.127 z m -0.423334,1.587501 q 0.105833,0 0.204611,-0.07056 0.105834,-0.07761 0.183445,-0.197556 0.07761,-0.127 0.119944,-0.289278 0.04939,-0.162278 0.04939,-0.338667 0,-0.211666 -0.07056,-0.331611 -0.07056,-0.127 -0.232834,-0.127 -0.105833,0 -0.204611,0.07761 -0.09878,0.07056 -0.176389,0.197556 -0.07056,0.119944 -0.112889,0.289278 -0.04233,0.162278 -0.04233,0.345722 0,0.444501 0.282222,0.444501 z m 1.721559,-1.389946 q 0,0.105834 -0.02117,0.246945 -0.02117,0.141111 -0.05644,0.282222 0.141111,-0.338667 0.310445,-0.529167 0.169333,-0.197555 0.366889,-0.197555 0.07761,0 0.141111,0.04233 0.0635,0.04233 0.0635,0.119944 0,0.05645 -0.04233,0.148167 -0.04233,0.08467 -0.08467,0.127 -0.04233,0.02822 -0.04233,-0.02117 0,-0.119945 -0.162278,-0.119945 -0.246945,0 -0.444501,0.373945 -0.197555,0.366889 -0.373944,1.023056 -0.01411,0.07056 -0.09878,0.09172 -0.07761,0.02117 -0.134056,0.02117 -0.07761,0 -0.03528,-0.07761 0.0635,-0.148167 0.119945,-0.3175 0.05644,-0.176389 0.105833,-0.352778 0.05644,-0.176389 0.09172,-0.345723 0.03528,-0.169333 0.05644,-0.310445 0.02822,-0.211666 -0.07056,-0.211666 -0.05644,0 -0.134055,0.0635 -0.07056,0.0635 -0.134056,0.148166 -0.02822,0.01411 -0.04939,0 -0.02117,-0.02117 -0.0071,-0.04939 0.105833,-0.134056 0.232833,-0.23989 0.134056,-0.112888 0.246945,-0.112888 0.155222,0 0.155222,0.197555 z m 1.975554,0.112889 q 0,0.09878 -0.07761,0.183445 -0.07761,0.08467 -0.211667,0.155222 -0.134055,0.0635 -0.310444,0.119945 -0.169334,0.05644 -0.359834,0.105833 -0.0071,0.07761 -0.01411,0.155222 0,0.07761 0,0.169334 0,0.176389 0.07761,0.296333 0.07761,0.119945 0.218723,0.119945 0.141111,0 0.261055,-0.07056 0.127,-0.07055 0.225778,-0.1905 0.02822,-0.01411 0.04233,0.0071 0.01411,0.02117 0,0.04939 -0.119945,0.162277 -0.30339,0.282222 -0.176389,0.112889 -0.373944,0.112889 -0.183445,0 -0.303389,-0.119945 -0.112889,-0.119944 -0.112889,-0.352778 0,-0.211666 0.07761,-0.4445 0.07761,-0.239889 0.204611,-0.437445 0.127,-0.197555 0.289278,-0.324555 0.169334,-0.127 0.352778,-0.127 0.134056,0 0.225778,0.09878 0.09172,0.09172 0.09172,0.211667 z m -0.465667,-0.127 q -0.162278,0 -0.289278,0.141111 -0.127,0.141112 -0.183444,0.444501 0.338667,-0.04939 0.493889,-0.141112 0.162278,-0.09878 0.162278,-0.218722 0,-0.09878 -0.04939,-0.162278 -0.04939,-0.0635 -0.134056,-0.0635 z m 2.984495,-0.176389 q 0.141111,0 0.225778,0.127 0.08467,0.127 0.08467,0.324556 0,0.275167 -0.09878,0.522111 -0.09172,0.239889 -0.261056,0.43039 -0.162278,0.183444 -0.388056,0.296333 -0.225778,0.105833 -0.493889,0.105833 -0.119944,0 -0.197556,-0.04939 -0.119944,0.352778 -0.218722,0.747889 -0.09878,0.402167 -0.09878,0.747889 0,0.155223 0.162278,0.134056 0.105833,-0.02117 0.211667,-0.08467 0.02117,-0.0071 0.02117,0.02117 0.0071,0.03528 -0.0071,0.05644 -0.08467,0.04939 -0.232833,0.09878 -0.148167,0.04939 -0.282223,0.04939 -0.05644,0 -0.09172,-0.02822 -0.03528,-0.02117 -0.03528,-0.08467 0,-0.359833 0.112889,-0.832556 0.112889,-0.472722 0.296334,-0.980723 -0.01411,-0.02117 -0.02822,-0.04233 -0.0071,-0.02822 -0.01411,-0.05645 -0.0071,-0.02822 0.105834,-0.0635 0.09172,-0.254 0.197555,-0.508 0.105834,-0.254 0.211667,-0.493889 0.134056,-0.296334 0.119945,-0.359834 -0.0071,-0.07055 -0.08467,-0.02822 -0.04939,0.02822 -0.112889,0.07761 -0.0635,0.04939 -0.119945,0.112889 -0.01411,0.01411 -0.03528,-0.0071 -0.01411,-0.02822 -0.0071,-0.04233 0.04233,-0.04939 0.112889,-0.112889 0.07056,-0.0635 0.141111,-0.119944 0.07761,-0.0635 0.148167,-0.105834 0.07761,-0.04233 0.134056,-0.04233 0.05644,0 0.07055,0.0635 0.02117,0.05644 -0.02117,0.155222 -0.04233,0.119945 -0.112888,0.282223 -0.0635,0.155222 -0.141112,0.310444 0.197556,-0.296333 0.388056,-0.458611 0.1905,-0.162278 0.338667,-0.162278 z m -0.754945,1.665112 q 0.176389,0 0.324556,-0.07761 0.155222,-0.07761 0.261056,-0.211667 0.112889,-0.141111 0.169333,-0.324555 0.0635,-0.190501 0.0635,-0.416278 0,-0.169334 -0.0635,-0.275167 -0.05644,-0.112889 -0.183445,-0.112889 -0.162277,0 -0.388055,0.289278 -0.225778,0.289278 -0.416278,0.818445 -0.01411,0.03528 -0.02822,0.07055 -0.0071,0.03528 -0.02117,0.07056 0.03528,0.07761 0.09878,0.127 0.07055,0.04233 0.183444,0.04233 z m 2.589389,-1.361723 q 0,0.09878 -0.07761,0.183445 -0.07761,0.08467 -0.211667,0.155222 -0.134056,0.0635 -0.310445,0.119945 -0.169333,0.05644 -0.359833,0.105833 -0.0071,0.07761 -0.01411,0.155222 0,0.07761 0,0.169334 0,0.176389 0.07761,0.296333 0.07761,0.119945 0.218722,0.119945 0.141111,0 0.261056,-0.07056 0.127,-0.07055 0.225778,-0.1905 0.02822,-0.01411 0.04233,0.0071 0.01411,0.02117 0,0.04939 -0.119944,0.162277 -0.303389,0.282222 -0.176389,0.112889 -0.373945,0.112889 -0.183444,0 -0.303389,-0.119945 -0.112889,-0.119944 -0.112889,-0.352778 0,-0.211666 0.07761,-0.4445 0.07761,-0.239889 0.204612,-0.437445 0.127,-0.197555 0.289278,-0.324555 0.169333,-0.127 0.352778,-0.127 0.134055,0 0.225778,0.09878 0.09172,0.09172 0.09172,0.211667 z m -0.465667,-0.127 q -0.162278,0 -0.289278,0.141111 -0.127,0.141112 -0.183445,0.444501 0.338667,-0.04939 0.49389,-0.141112 0.162277,-0.09878 0.162277,-0.218722 0,-0.09878 -0.04939,-0.162278 -0.04939,-0.0635 -0.134055,-0.0635 z m 1.319386,0.01411 q 0,0.105834 -0.02117,0.246945 -0.02117,0.141111 -0.05644,0.282222 0.141111,-0.338667 0.310444,-0.529167 0.169334,-0.197555 0.366889,-0.197555 0.07761,0 0.141112,0.04233 0.0635,0.04233 0.0635,0.119944 0,0.05645 -0.04233,0.148167 -0.04233,0.08467 -0.08467,0.127 -0.04233,0.02822 -0.04233,-0.02117 0,-0.119945 -0.162278,-0.119945 -0.246944,0 -0.4445,0.373945 -0.197556,0.366889 -0.373945,1.023056 -0.01411,0.07056 -0.09878,0.09172 -0.07761,0.02117 -0.134056,0.02117 -0.07761,0 -0.03528,-0.07761 0.0635,-0.148167 0.119945,-0.3175 0.05644,-0.176389 0.105833,-0.352778 0.05644,-0.176389 0.09172,-0.345723 0.03528,-0.169333 0.05645,-0.310445 0.02822,-0.211666 -0.07056,-0.211666 -0.05644,0 -0.134055,0.0635 -0.07056,0.0635 -0.134056,0.148166 -0.02822,0.01411 -0.04939,0 -0.02117,-0.02117 -0.0071,-0.04939 0.105834,-0.134056 0.232834,-0.23989 0.134056,-0.112888 0.246944,-0.112888 0.155223,0 0.155223,0.197555 z m 3.795889,-3.520724 q 0.134055,0 0.225777,0.05644 0.09172,0.05645 0.134056,0.148167 0.04939,0.09172 0.04939,0.204611 0,0.105834 -0.04939,0.211667 -0.01411,0.02117 -0.03528,0.01411 -0.02117,-0.0071 -0.03528,-0.02822 -0.01411,-0.141111 -0.134055,-0.246945 -0.112889,-0.112889 -0.359834,-0.112889 -0.268111,0 -0.515056,0.141112 -0.239889,0.141111 -0.493889,0.493889 -0.246944,0.352778 -0.508,0.9525 -0.254,0.599723 -0.550334,1.516946 0.162278,-0.0071 0.338667,-0.0071 0.183445,0 0.373945,0 0.03528,0.01411 0.02822,0.04233 0,0.02117 -0.0635,0.03528 -0.176389,0.0071 -0.352778,0.01411 -0.176389,0.0071 -0.359834,0.02117 -0.02117,0.07761 -0.04939,0.141111 -0.289278,0.924279 -0.592667,1.545168 -0.303389,0.627945 -0.620889,1.00189 -0.3175,0.381 -0.642056,0.536222 -0.331611,0.162278 -0.670278,0.162278 -0.239889,0 -0.338667,-0.105833 -0.105833,-0.105834 -0.105833,-0.246945 0,-0.0635 0.02822,-0.141111 0.02822,-0.07056 0.07055,-0.127 0.02117,-0.02117 0.04233,-0.0071 0.01411,0.01411 0.01411,0.03528 -0.02822,0.05644 -0.02117,0.127 0.0071,0.07761 0.0635,0.141111 0.04939,0.07056 0.155223,0.112889 0.09878,0.04939 0.261055,0.04939 0.169334,0 0.338667,-0.04233 0.162278,-0.04233 0.331612,-0.162278 0.162277,-0.112889 0.331611,-0.324556 0.162278,-0.211667 0.338667,-0.557389 0.176389,-0.338667 0.366889,-0.825501 0.1905,-0.486833 0.395111,-1.157111 0.01411,-0.03528 0.02117,-0.0635 0.0071,-0.03528 0.02117,-0.07055 -0.119945,0.01411 -0.239889,0.03528 -0.119945,0.01411 -0.239889,0.04233 -0.03528,-0.0071 -0.02117,-0.03528 0.02117,-0.02822 0.0635,-0.05644 0.04939,-0.02822 0.112889,-0.04939 0.0635,-0.02822 0.119944,-0.03528 0.05645,-0.0071 0.112889,-0.0071 0.0635,-0.0071 0.127,-0.01411 0.254001,-0.762 0.543279,-1.375834 0.296333,-0.620889 0.620889,-1.058334 0.324556,-0.4445 0.670278,-0.684389 0.345723,-0.239889 0.698501,-0.239889 z m -0.719665,3.633613 q 0,0.09878 -0.07761,0.183445 -0.07761,0.08467 -0.211667,0.155222 -0.134056,0.0635 -0.310445,0.119945 -0.169333,0.05644 -0.359833,0.105833 -0.0071,0.07761 -0.01411,0.155222 0,0.07761 0,0.169334 0,0.176389 0.07761,0.296333 0.07761,0.119945 0.218722,0.119945 0.141111,0 0.261056,-0.07056 0.127,-0.07055 0.225778,-0.1905 0.02822,-0.01411 0.04233,0.0071 0.01411,0.02117 0,0.04939 -0.119944,0.162277 -0.303389,0.282222 -0.176389,0.112889 -0.373945,0.112889 -0.183444,0 -0.303389,-0.119945 -0.112889,-0.119944 -0.112889,-0.352778 0,-0.211666 0.07761,-0.4445 0.07761,-0.239889 0.204612,-0.437445 0.127,-0.197555 0.289278,-0.324555 0.169333,-0.127 0.352778,-0.127 0.134055,0 0.225778,0.09878 0.09172,0.09172 0.09172,0.211667 z m -0.465667,-0.127 q -0.162278,0 -0.289278,0.141111 -0.127,0.141112 -0.183445,0.444501 0.338667,-0.04939 0.49389,-0.141112 0.162277,-0.09878 0.162277,-0.218722 0,-0.09878 -0.04939,-0.162278 -0.04939,-0.0635 -0.134056,-0.0635 z m 1.721553,0.388056 q -0.03528,0 -0.03528,-0.03528 0.05644,-0.141111 0,-0.246944 -0.04939,-0.105834 -0.211667,-0.105834 -0.112889,0 -0.211667,0.08467 -0.09878,0.07761 -0.169333,0.225778 -0.07056,0.141111 -0.112889,0.338667 -0.04233,0.1905 -0.04233,0.416278 0,0.345722 0.239889,0.345722 0.275167,0 0.550333,-0.331611 0.02822,-0.01411 0.04939,0.0071 0.02117,0.01411 0.0071,0.04939 -0.162278,0.204612 -0.359834,0.352778 -0.197555,0.141111 -0.388056,0.141111 -0.155222,0 -0.261055,-0.112888 -0.09878,-0.112889 -0.09878,-0.310445 0,-0.246945 0.07761,-0.493889 0.08467,-0.246945 0.211667,-0.444501 0.134056,-0.197555 0.303389,-0.3175 0.169333,-0.127 0.345722,-0.127 0.148167,0 0.232834,0.07056 0.08467,0.07056 0.08467,0.169333 0,0.03528 -0.02117,0.08467 -0.02117,0.04939 -0.05644,0.09878 -0.02822,0.04939 -0.07056,0.09172 -0.03528,0.03528 -0.0635,0.04939 z m 1.629826,-0.543278 q 0.03528,0.01411 0.02822,0.04233 -0.0071,0.02822 -0.0635,0.03528 -0.112889,0.0071 -0.254,0.01411 -0.134056,0.0071 -0.275167,0.02117 -0.141111,0.352778 -0.232834,0.677334 -0.09172,0.324555 -0.09172,0.536222 0,0.239889 0.183445,0.239889 0.183444,0 0.402166,-0.324556 0.02117,-0.01411 0.04233,0.0071 0.02117,0.01411 0.01411,0.04939 -0.0635,0.09878 -0.148167,0.1905 -0.07761,0.08467 -0.162278,0.148167 -0.08467,0.0635 -0.162278,0.105833 -0.07761,0.03528 -0.127,0.03528 -0.155222,0 -0.232833,-0.09172 -0.07056,-0.09878 -0.07056,-0.232834 0,-0.232833 0.09878,-0.585611 0.09878,-0.352778 0.246945,-0.726723 -0.09172,0.01411 -0.176389,0.02822 -0.08467,0.01411 -0.162278,0.02822 -0.03528,-0.0071 -0.02117,-0.03528 0.02117,-0.02822 0.0635,-0.05645 0.04939,-0.02822 0.112889,-0.04939 0.0635,-0.02822 0.119945,-0.02822 0.03528,-0.0071 0.05644,-0.0071 0.02822,0 0.05645,0 0.09878,-0.218722 0.197555,-0.416278 0.09878,-0.204611 0.197556,-0.373944 0.04233,-0.04233 0.09172,-0.07056 0.05645,-0.03528 0.105834,-0.04233 0.04939,-0.01411 0.07761,-0.0071 0.02822,0 0.02117,0.02117 -0.119945,0.183444 -0.23989,0.409222 -0.112888,0.225778 -0.218722,0.465667 0.127,0 0.254,0 0.127,-0.0071 0.268112,-0.0071 z m 1.269997,1.778001 q -0.09172,0 -0.162278,-0.08467 -0.07055,-0.09172 -0.07055,-0.232833 0,-0.112889 0.02822,-0.261056 0.03528,-0.155222 0.08467,-0.324556 0.05644,-0.169333 0.134055,-0.338667 0.07761,-0.169333 0.176389,-0.3175 -0.07761,0.05645 -0.162278,0.127 -0.08467,0.0635 -0.141111,0.119945 -0.02117,0.01411 -0.03528,-0.0071 -0.01411,-0.02822 -0.0071,-0.04939 0.04939,-0.04939 0.127,-0.112889 0.07761,-0.0635 0.162278,-0.127 0.09172,-0.0635 0.183444,-0.119944 0.09878,-0.0635 0.183445,-0.105834 0.02822,-0.0071 0.04233,0.01411 0.02117,0.02117 0.01411,0.04939 -0.225778,0.289278 -0.366889,0.642056 -0.134055,0.345723 -0.134055,0.663223 0,0.204611 0.119944,0.204611 0.09172,0 0.225778,-0.119944 0.141111,-0.127 0.289278,-0.324556 0.148167,-0.204611 0.296334,-0.458611 0.155222,-0.254001 0.282222,-0.515056 0.02117,-0.04939 0.07761,-0.08467 0.0635,-0.04233 0.134056,-0.04233 0.09172,0 0.0635,0.05644 -0.09878,0.183445 -0.176389,0.345722 -0.07761,0.155223 -0.127,0.310445 -0.04939,0.155222 -0.07761,0.3175 -0.02117,0.162278 -0.02117,0.352778 0,0.225778 0.127,0.225778 0.05644,0 0.127,-0.05644 0.07056,-0.0635 0.141111,-0.162278 0.02117,-0.01411 0.04233,0 0.02117,0.01411 0.0071,0.04939 -0.09878,0.148167 -0.232833,0.261056 -0.127,0.105833 -0.246945,0.105833 -0.09172,0 -0.155222,-0.09172 -0.0635,-0.09172 -0.0635,-0.246945 0,-0.169333 0.02822,-0.359834 0.03528,-0.197555 0.105833,-0.395111 -0.134055,0.261056 -0.282222,0.465667 -0.148167,0.197556 -0.289278,0.338667 -0.134056,0.141111 -0.254,0.218722 -0.119945,0.07056 -0.197556,0.07056 z m 3.640668,-0.451556 q 0.02117,-0.01411 0.04233,0 0.02117,0.01411 0.01411,0.04233 -0.119945,0.162278 -0.268112,0.289278 -0.141111,0.119945 -0.268111,0.119945 -0.218722,0 -0.218722,-0.282222 0,-0.23989 0.08467,-0.529167 0.08467,-0.296334 0.232834,-0.592668 0.02822,-0.04939 0.02822,-0.09878 0,-0.07761 -0.07055,-0.07761 -0.261056,0 -0.578556,0.359834 -0.310445,0.359834 -0.578556,1.12889 -0.01411,0.04233 -0.07761,0.07056 -0.0635,0.02117 -0.119945,0.02117 -0.07761,0 -0.05644,-0.0635 0.119944,-0.303389 0.246944,-0.684389 0.134056,-0.381001 0.232834,-0.754945 0.02822,-0.134056 -0.04939,-0.134056 -0.07056,0 -0.141111,0.07056 -0.07056,0.07055 -0.148167,0.183444 -0.01411,0.01411 -0.03528,-0.0071 -0.01411,-0.02117 -0.0071,-0.04233 0.07761,-0.119944 0.211667,-0.246944 0.134056,-0.127 0.289278,-0.127 0.176389,0 0.119945,0.239889 -0.02822,0.155222 -0.07761,0.331611 -0.04939,0.169333 -0.105834,0.338667 0.09878,-0.1905 0.232834,-0.359834 0.134055,-0.169333 0.275166,-0.289278 0.148167,-0.119944 0.289278,-0.1905 0.148167,-0.07055 0.275167,-0.07055 0.08467,0 0.127,0.04233 0.04939,0.04233 0.04939,0.09878 0,0.09172 -0.04233,0.183444 -0.148167,0.268112 -0.254,0.564445 -0.09878,0.289278 -0.09878,0.536223 0,0.176389 0.112889,0.176389 0.148167,0 0.331611,-0.246945 z m 0.430391,-0.860778 q -0.02117,0.01411 -0.04233,-0.0071 -0.01411,-0.02822 0,-0.04939 0.09878,-0.09878 0.268112,-0.225778 0.169333,-0.127 0.338666,-0.211666 0.05645,0 0.05645,0.0635 -0.09172,0.162277 -0.183445,0.352778 -0.08467,0.1905 -0.155222,0.381 -0.0635,0.183444 -0.105833,0.359833 -0.04233,0.169334 -0.04233,0.282223 0,0.148167 0.09878,0.148167 0.07761,0 0.148167,-0.0635 0.07761,-0.07056 0.176389,-0.183445 0.01411,-0.01411 0.03528,0.0071 0.02117,0.02117 0.0071,0.04939 -0.127,0.155223 -0.275167,0.282223 -0.141111,0.127 -0.268111,0.127 -0.183444,0 -0.183444,-0.232834 0,-0.134055 0.04233,-0.3175 0.04939,-0.1905 0.119944,-0.381 0.07056,-0.1905 0.155223,-0.366889 0.09172,-0.176389 0.176389,-0.303389 -0.07761,0.05644 -0.197556,0.148167 -0.112889,0.08467 -0.169333,0.141111 z m 0.635,-0.797279 q -0.02117,0.02117 -0.04233,0.0071 -0.01411,-0.02117 -0.02117,-0.04939 -0.0071,-0.03528 -0.0071,-0.07761 0,-0.04233 0.02117,-0.07056 0.183445,-0.254 0.515056,-0.543278 0.02117,-0.0071 0.04233,0.01411 0.02117,0.01411 0.0071,0.02822 -0.148167,0.134055 -0.282223,0.324555 -0.134055,0.183445 -0.232833,0.366889 z m 1.192392,0.30339 q 0.1905,0 0.282223,0.127 0.09172,0.127 0.09172,0.331611 0,0.239889 -0.09172,0.479778 -0.09172,0.239889 -0.232834,0.437445 -0.141111,0.1905 -0.310445,0.310444 -0.162277,0.119945 -0.303389,0.119945 -0.169333,0 -0.268111,-0.134056 -0.09878,-0.134055 -0.09878,-0.381 0,-0.197556 0.07761,-0.423334 0.07761,-0.225777 0.204612,-0.416278 0.134055,-0.197555 0.296333,-0.324555 0.169334,-0.127 0.352778,-0.127 z m -0.423333,1.587501 q 0.105833,0 0.204611,-0.07056 0.105833,-0.07761 0.183444,-0.197556 0.07761,-0.127 0.119945,-0.289278 0.04939,-0.162278 0.04939,-0.338667 0,-0.211666 -0.07056,-0.331611 -0.07056,-0.127 -0.232833,-0.127 -0.105834,0 -0.204612,0.07761 -0.09878,0.07056 -0.176389,0.197556 -0.07055,0.119944 -0.112888,0.289278 -0.04233,0.162278 -0.04233,0.345722 0,0.444501 0.282223,0.444501 z m 2.857502,-0.232834 q 0.02117,-0.01411 0.04233,0 0.02117,0.01411 0.01411,0.04233 -0.119944,0.162278 -0.268111,0.289278 -0.141111,0.119945 -0.268111,0.119945 -0.218723,0 -0.218723,-0.282222 0,-0.23989 0.08467,-0.529167 0.08467,-0.296334 0.232834,-0.592668 0.02822,-0.04939 0.02822,-0.09878 0,-0.07761 -0.07056,-0.07761 -0.261055,0 -0.578556,0.359834 -0.310444,0.359834 -0.578556,1.12889 -0.01411,0.04233 -0.07761,0.07056 -0.0635,0.02117 -0.119944,0.02117 -0.07761,0 -0.05644,-0.0635 0.119945,-0.303389 0.246945,-0.684389 0.134056,-0.381001 0.232833,-0.754945 0.02822,-0.134056 -0.04939,-0.134056 -0.07055,0 -0.141111,0.07056 -0.07055,0.07055 -0.148167,0.183444 -0.01411,0.01411 -0.03528,-0.0071 -0.01411,-0.02117 -0.0071,-0.04233 0.07761,-0.119944 0.211667,-0.246944 0.134056,-0.127 0.289278,-0.127 0.176389,0 0.119944,0.239889 -0.02822,0.155222 -0.07761,0.331611 -0.04939,0.169333 -0.105833,0.338667 0.09878,-0.1905 0.232833,-0.359834 0.134056,-0.169333 0.275167,-0.289278 0.148167,-0.119944 0.289278,-0.1905 0.148167,-0.07055 0.275167,-0.07055 0.08467,0 0.127,0.04233 0.04939,0.04233 0.04939,0.09878 0,0.09172 -0.04233,0.183444 -0.148167,0.268112 -0.254001,0.564445 -0.09878,0.289278 -0.09878,0.536223 0,0.176389 0.112889,0.176389 0.148166,0 0.331611,-0.246945 z m 0.359839,0.451556 q -0.08467,0 -0.08467,-0.155222 0,-0.04233 0.02822,-0.09172 0.02822,-0.04939 0.07761,-0.09878 0.04939,-0.04939 0.105834,-0.07761 0.05644,-0.03528 0.119944,-0.03528 0.07056,0 0.07056,0.105833 0,0.05644 -0.03528,0.119944 -0.02822,0.05645 -0.07761,0.112889 -0.04233,0.04939 -0.09878,0.08467 -0.05645,0.03528 -0.105833,0.03528 z"
     id="text5"
     aria-label="in order to form a more perfect union." />
  <rect
     style="fill:none;fill-opacity:1;stroke-width:0.11666666;stroke:#000000;stroke-opacity:1;stroke-dasharray:none"
     id="rect5"
     width="68.40036"
     height="36.008728"
     x="2.8063578e-06"
     y="5.4190804e-07" />
</svg>
